<svg width="200" height="200" viewBox="0 0 200 200" fill="none" xmlns="http://www.w3.org/2000/svg">
<rect x="1.5" y="1.5" width="197" height="197" rx="98.5" fill="#072723"/>
<rect x="1.5" y="1.5" width="197" height="197" rx="98.5" stroke="#0F3933" stroke-width="3"/>
<path d="M170.495 99.4872C170.625 111.223 168.169 122.438 163.342 133.152C156.45 148.409 139.928 160.884 124.84 147.606C112.535 136.782 110.252 114.809 91.8163 111.593C67.4236 108.637 66.8366 136.912 50.9009 140.107C33.139 143.715 27.2474 113.853 27.5082 100.291C27.7691 86.7296 31.378 67.6693 46.8137 67.6693C64.5756 67.6693 65.7714 94.5537 88.3161 93.0975C110.643 91.5762 111.035 63.6051 125.623 51.6299C138.21 41.2848 153.016 48.8698 160.429 61.3231C167.299 72.8419 170.321 86.3601 170.473 99.4872H170.495Z" fill="#50D2C1"/>
</svg>
