<?xml version="1.0" encoding="UTF-8" standalone="no"?>
<svg
   width="480"
   height="480"
   viewBox="0 0 480 480"
   fill="none"
   version="1.1"
   id="svg6"
   sodipodi:docname="MONAD.svg"
   inkscape:version="1.2.2 (b0a8486541, 2022-12-01)"
   xmlns:inkscape="http://www.inkscape.org/namespaces/inkscape"
   xmlns:sodipodi="http://sodipodi.sourceforge.net/DTD/sodipodi-0.dtd"
   xmlns="http://www.w3.org/2000/svg"
   xmlns:svg="http://www.w3.org/2000/svg">
  <defs
     id="defs10">
    <clipPath
       clipPathUnits="userSpaceOnUse"
       id="clipPath226">
      <circle
         style="fill:none;stroke:#000000"
         id="circle228"
         cx="239.23096"
         cy="239.46632"
         r="234.73065" />
    </clipPath>
    <clipPath
       clipPathUnits="userSpaceOnUse"
       id="clipPath230">
      <circle
         style="fill:none;stroke:#000000"
         id="circle232"
         cx="239.23096"
         cy="239.46632"
         r="234.73065" />
    </clipPath>
  </defs>
  <sodipodi:namedview
     id="namedview8"
     pagecolor="#ffffff"
     bordercolor="#000000"
     borderopacity="0.25"
     inkscape:showpageshadow="2"
     inkscape:pageopacity="0.0"
     inkscape:pagecheckerboard="0"
     inkscape:deskcolor="#d1d1d1"
     showgrid="false"
     inkscape:zoom="0.49166667"
     inkscape:cx="240"
     inkscape:cy="241.01695"
     inkscape:window-width="3440"
     inkscape:window-height="1403"
     inkscape:window-x="0"
     inkscape:window-y="611"
     inkscape:window-maximized="1"
     inkscape:current-layer="svg6" />
  <rect
     width="480"
     height="480"
     fill="#6E54FF"
     id="rect2"
     clip-path="url(#clipPath230)" />
  <path
     d="M240.135 90C196.78 90 90 196.68 90 240C90 283.318 196.78 390 240.135 390C283.491 390 390.273 283.316 390.273 240C390.273 196.682 283.493 90 240.135 90ZM216.739 325.774C198.457 320.796 149.302 234.89 154.285 216.624C159.268 198.357 245.251 149.248 263.533 154.226C281.817 159.204 330.971 245.108 325.989 263.376C321.005 281.642 235.023 330.752 216.739 325.774Z"
     fill="white"
     id="path4"
     clip-path="url(#clipPath226)" />
</svg>
