<svg xmlns="http://www.w3.org/2000/svg" fill="none" viewBox="0 0 400 400"><rect width="400" height="400" fill="#A7A7A7" rx="200"/><path fill="#000" fill-opacity=".5" d="M286.234 238.6v69.233h18.883a4.615 4.615 0 0 0 4.6-4.616v-60a4.617 4.617 0 0 0-4.6-4.617h-18.883Zm0-138.6v69.233h18.883a4.615 4.615 0 0 0 4.6-4.616v-60a4.617 4.617 0 0 0-4.6-4.617h-18.883Z"/><path fill="#000" fill-opacity=".3" d="M321.617 100v69.233h7.066a4.616 4.616 0 0 0 4.6-4.616v-60A4.615 4.615 0 0 0 328.7 100h-7.083Zm.05 138.6v69.233h7.05a4.613 4.613 0 0 0 4.616-4.616v-60a4.615 4.615 0 0 0-4.616-4.617h-7.05Z"/><path fill="#000" d="M200.4 169.383h-59.733a4.588 4.588 0 0 0-4.245 2.814 4.59 4.59 0 0 0-.355 1.753v59.283c0 2.517 2.066 4.567 4.6 4.567h59.7a4.591 4.591 0 0 0 3.246-1.331 4.578 4.578 0 0 0 1.354-3.236V173.95a4.582 4.582 0 0 0-4.584-4.567M131.283 100h-60a4.616 4.616 0 0 0-4.616 4.617v60a4.616 4.616 0 0 0 4.616 4.616h60a4.616 4.616 0 0 0 4.617-4.616v-60a4.616 4.616 0 0 0-4.617-4.617Zm138.417 0h-60a4.614 4.614 0 0 0-4.617 4.617v60a4.627 4.627 0 0 0 4.617 4.616h60a4.618 4.618 0 0 0 4.617-4.616v-60A4.618 4.618 0 0 0 269.7 100ZM131.283 238.45h-60a4.616 4.616 0 0 0-4.616 4.617v60c0 2.55 2.066 4.6 4.616 4.6h60a4.614 4.614 0 0 0 4.617-4.6v-60a4.616 4.616 0 0 0-4.617-4.617Zm138.417 0h-60a4.614 4.614 0 0 0-4.617 4.617v60c0 2.55 2.084 4.6 4.617 4.6h60a4.615 4.615 0 0 0 4.617-4.6v-60a4.618 4.618 0 0 0-4.617-4.617Z"/></svg>