<svg xmlns="http://www.w3.org/2000/svg" fill="none" viewBox="0 0 201 200"><circle cx="100.5" cy="100" r="100" fill="#F7F4FA"/><mask id="a" width="173" height="174" x="14" y="13" maskUnits="userSpaceOnUse" style="mask-type:luminance"><path fill="#fff" d="M187 13.5H14v173h173v-173Z"/></mask><g mask="url(#a)"><mask id="b" width="173" height="174" x="14" y="13" maskUnits="userSpaceOnUse" style="mask-type:luminance"><path fill="#fff" d="M14 13.5h173v173H14v-173Z"/></mask><g mask="url(#b)"><path fill="url(#c)" d="m164.801 47.578-53.223-30.745a25.187 25.187 0 0 0-25.047 0L33.307 47.578a25.049 25.049 0 0 0-12.524 21.698v61.615a25.044 25.044 0 0 0 12.524 21.508l53.224 30.746a25.052 25.052 0 0 0 25.047 0l53.223-30.746a25.047 25.047 0 0 0 12.525-21.697V69.088a25.057 25.057 0 0 0-3.401-12.42 25.062 25.062 0 0 0-9.124-9.09ZM33.307 69.276a12.523 12.523 0 0 1 6.261-10.866l53.224-30.713a12.446 12.446 0 0 1 12.524 0l53.225 30.713a12.524 12.524 0 0 1 6.26 10.676v6.262a18.44 18.44 0 0 1-18.409 18.377H51.716a30.589 30.589 0 0 0-18.409 6.107V69.276Zm131.494 61.426a12.52 12.52 0 0 1-6.26 10.865l-53.225 30.712a12.519 12.519 0 0 1-12.524 0l-53.224-30.712a12.528 12.528 0 0 1-6.261-10.676v-6.262a18.445 18.445 0 0 1 18.41-18.379h94.675a30.577 30.577 0 0 0 18.409-6.105v30.557Z"/><path fill="url(#d)" d="M69.94 66.145h12.148v18.19h12.524v-18.19a12.518 12.518 0 0 0-7.731-11.571 12.521 12.521 0 0 0-4.793-.953H69.94a12.522 12.522 0 0 0-12.523 12.524v18.19H69.94v-18.19Z"/><path fill="url(#e)" d="M82.088 133.833H69.94v-18.191H57.417v18.191a12.529 12.529 0 0 0 3.667 8.855 12.535 12.535 0 0 0 4.063 2.716 12.53 12.53 0 0 0 4.793.952h12.148a12.513 12.513 0 0 0 11.57-7.73c.63-1.52.953-3.149.953-4.793v-18.191H82.089l-.001 18.191Z"/><path fill="url(#f)" d="M119.277 66.145h12.18v18.19h12.524v-18.19a12.53 12.53 0 0 0-3.668-8.857 12.526 12.526 0 0 0-8.856-3.667h-12.18a12.525 12.525 0 0 0-12.523 12.524v18.19h12.523v-18.19Z"/><path fill="url(#g)" d="M131.457 133.834h-12.18v-18.191h-12.523v18.191a12.528 12.528 0 0 0 7.731 11.57c1.519.629 3.148.953 4.792.952h12.18a12.522 12.522 0 0 0 12.524-12.522v-18.191h-12.524v18.191Z"/></g></g><defs><linearGradient id="c" x1="99.054" x2="99.054" y1="13.5" y2="186.5" gradientUnits="userSpaceOnUse"><stop stop-color="#A727C1"/><stop offset="1" stop-color="#7C40E4"/></linearGradient><linearGradient id="d" x1="76.014" x2="76.014" y1="53.621" y2="84.335" gradientUnits="userSpaceOnUse"><stop stop-color="#A727C1"/><stop offset="1" stop-color="#7C40E4"/></linearGradient><linearGradient id="e" x1="76.014" x2="76.014" y1="115.642" y2="146.356" gradientUnits="userSpaceOnUse"><stop stop-color="#A727C1"/><stop offset="1" stop-color="#7C40E4"/></linearGradient><linearGradient id="f" x1="125.367" x2="125.367" y1="53.621" y2="84.335" gradientUnits="userSpaceOnUse"><stop stop-color="#A727C1"/><stop offset="1" stop-color="#7C40E4"/></linearGradient><linearGradient id="g" x1="125.367" x2="125.367" y1="115.643" y2="146.356" gradientUnits="userSpaceOnUse"><stop stop-color="#A727C1"/><stop offset="1" stop-color="#7C40E4"/></linearGradient></defs></svg>