<svg width="664" height="480" viewBox="0 0 664 480" fill="none" xmlns="http://www.w3.org/2000/svg">
<g opacity="0.4" filter="url(#filter0_dddd_36_267)">
<path d="M-37.4399 457.14L-37.4399 467.14L418.56 467.14V457.14L-37.4399 457.14Z" fill="url(#paint0_radial_36_267)" shape-rendering="crispEdges"/>
<path d="M-37.4399 437.14L-37.4399 447.14L418.56 447.14V437.14L-37.4399 437.14Z" fill="url(#paint1_radial_36_267)" shape-rendering="crispEdges"/>
<path d="M-37.4399 417.14L-37.4399 427.14L418.56 427.14V417.14L-37.4399 417.14Z" fill="url(#paint2_radial_36_267)" shape-rendering="crispEdges"/>
<path d="M-37.4399 397.14V407.14L418.56 407.14V397.14L-37.4399 397.14Z" fill="url(#paint3_radial_36_267)" shape-rendering="crispEdges"/>
<path d="M-37.4399 377.14V387.14L418.56 387.14V377.14L-37.4399 377.14Z" fill="url(#paint4_radial_36_267)" shape-rendering="crispEdges"/>
<path d="M-37.4399 357.14V367.14L418.56 367.14V357.14L-37.4399 357.14Z" fill="url(#paint5_radial_36_267)" shape-rendering="crispEdges"/>
<path d="M-37.4399 337.14V347.14L418.56 347.14V337.14L-37.4399 337.14Z" fill="url(#paint6_radial_36_267)" shape-rendering="crispEdges"/>
<path d="M-37.4399 317.14V327.14L418.56 327.14V317.14L-37.4399 317.14Z" fill="url(#paint7_radial_36_267)" shape-rendering="crispEdges"/>
<path d="M-37.4399 297.14V307.14L418.56 307.14V297.14L-37.4399 297.14Z" fill="url(#paint8_radial_36_267)" shape-rendering="crispEdges"/>
<path d="M-37.4399 277.14V287.14L418.56 287.14V277.14L-37.4399 277.14Z" fill="url(#paint9_radial_36_267)" shape-rendering="crispEdges"/>
<path d="M-37.4399 257.14V267.14L418.56 267.14V257.14L-37.4399 257.14Z" fill="url(#paint10_radial_36_267)" shape-rendering="crispEdges"/>
<path d="M-36.4399 200.14L-36.4399 210.14L418.56 210.14V200.14L-36.4399 200.14Z" fill="url(#paint11_radial_36_267)" shape-rendering="crispEdges"/>
<path d="M-36.4399 180.14L-36.4399 190.14L418.56 190.14V180.14L-36.4399 180.14Z" fill="url(#paint12_radial_36_267)" shape-rendering="crispEdges"/>
<path d="M-36.4399 160.14V170.14L418.56 170.14V160.14L-36.4399 160.14Z" fill="url(#paint13_radial_36_267)" shape-rendering="crispEdges"/>
<path d="M-36.4399 140.14V150.14L418.56 150.14V140.14L-36.4399 140.14Z" fill="url(#paint14_radial_36_267)" shape-rendering="crispEdges"/>
<path d="M-36.4399 120.14V130.14L418.56 130.14V120.14L-36.4399 120.14Z" fill="url(#paint15_radial_36_267)" shape-rendering="crispEdges"/>
<path d="M-36.4399 100.14V110.14L418.56 110.14V100.14L-36.4399 100.14Z" fill="url(#paint16_radial_36_267)" shape-rendering="crispEdges"/>
<path d="M-36.4399 80.1402V90.1402L418.56 90.1401V80.1401L-36.4399 80.1402Z" fill="url(#paint17_radial_36_267)" shape-rendering="crispEdges"/>
<path d="M-36.4399 60.1402L-36.4399 70.1402L418.56 70.1401V60.1401L-36.4399 60.1402Z" fill="url(#paint18_radial_36_267)" shape-rendering="crispEdges"/>
<path d="M-36.4399 40.1402V50.1402L418.56 50.1401V40.1401L-36.4399 40.1402Z" fill="url(#paint19_radial_36_267)" shape-rendering="crispEdges"/>
<path d="M-36.4399 20.1402L-36.4399 30.1402L418.56 30.1401V20.1401L-36.4399 20.1402Z" fill="url(#paint20_radial_36_267)" shape-rendering="crispEdges"/>
<path d="M-36.4399 0.140179V10.1402L418.56 10.1401V0.140137L-36.4399 0.140179Z" fill="url(#paint21_radial_36_267)" shape-rendering="crispEdges"/>
<path d="M418.56 257.14C421.89 257.11 424.69 256.52 427.44 255.4C430.16 254.28 432.8 252.54 435.02 250.32C437.24 248.09 438.97 245.46 440.1 242.74C441.22 239.99 441.81 237.19 441.84 233.86C441.81 230.53 441.22 227.73 440.1 224.98C438.98 222.26 437.24 219.62 435.02 217.4C432.79 215.18 430.16 213.45 427.44 212.32C424.69 211.2 421.89 210.61 418.56 210.58V200.58C423.17 200.61 427.3 201.45 431.27 203.09C435.21 204.72 438.95 207.19 442.1 210.33C445.24 213.48 447.72 217.21 449.34 221.16C450.97 225.12 451.81 229.26 451.85 233.87C451.82 238.48 450.98 242.61 449.34 246.58C447.71 250.52 445.24 254.26 442.1 257.41C438.95 260.55 435.22 263.03 431.27 264.65C427.31 266.28 423.17 267.12 418.56 267.16L418.56 257.14Z" fill="url(#paint22_radial_36_267)" shape-rendering="crispEdges"/>
<path d="M418.56 287.14V277.14C424.45 277.11 429.92 276.01 435.1 273.87C440.26 271.74 445.1 268.52 449.17 264.46C453.23 260.4 456.45 255.55 458.58 250.39C460.72 245.21 461.82 239.74 461.85 233.85C461.82 227.96 460.72 222.49 458.58 217.31C456.45 212.15 453.23 207.31 449.17 203.24C445.11 199.18 440.26 195.96 435.1 193.83C429.92 191.69 424.45 190.59 418.56 190.56V180.56C425.73 180.59 432.53 181.95 438.93 184.59C445.31 187.23 451.25 191.19 456.24 196.16C461.22 201.14 465.18 207.09 467.81 213.47C470.45 219.86 471.82 226.66 471.84 233.84C471.81 241.01 470.45 247.81 467.81 254.21C465.17 260.59 461.21 266.53 456.24 271.52C451.26 276.5 445.31 280.46 438.93 283.09C432.54 285.73 425.74 287.1 418.56 287.12L418.56 287.14Z" fill="url(#paint23_radial_36_267)" shape-rendering="crispEdges"/>
<path d="M418.56 297.14C427.02 297.12 435.15 295.5 442.76 292.35C450.36 289.21 457.4 284.51 463.31 278.61C469.21 272.71 473.91 265.66 477.05 258.06C480.2 250.45 481.82 242.32 481.84 233.86C481.82 225.4 480.2 217.27 477.05 209.66C473.91 202.06 469.21 195.02 463.31 189.11C457.41 183.21 450.36 178.51 442.76 175.37C435.15 172.22 427.02 170.6 418.56 170.58V160.58C428.3 160.6 437.76 162.48 446.59 166.14C455.41 169.79 463.56 175.23 470.38 182.05C477.2 188.87 482.64 197.02 486.29 205.84C489.95 214.67 491.83 224.13 491.85 233.87C491.83 243.61 489.95 253.07 486.29 261.9C482.64 270.72 477.2 278.87 470.38 285.69C463.56 292.51 455.41 297.95 446.59 301.6C437.76 305.26 428.3 307.14 418.56 307.16L418.56 297.14Z" fill="url(#paint24_radial_36_267)" shape-rendering="crispEdges"/>
<path d="M418.56 327.14V317.14C429.58 317.12 440.38 314.99 450.42 310.82C460.45 306.67 469.71 300.48 477.45 292.75C485.19 285.01 491.37 275.76 495.52 265.72C499.68 255.68 501.82 244.88 501.84 233.86C501.82 222.84 499.69 212.04 495.52 202C491.37 191.97 485.18 182.71 477.45 174.97C469.71 167.23 460.46 161.05 450.42 156.9C440.38 152.74 429.58 150.6 418.56 150.58V140.58C430.86 140.6 442.99 142.99 454.25 147.66C465.5 152.32 475.86 159.24 484.52 167.9C493.18 176.56 500.1 186.92 504.76 198.17C509.43 209.43 511.83 221.55 511.84 233.86C511.82 246.16 509.43 258.29 504.76 269.55C500.1 280.8 493.18 291.16 484.52 299.82C475.86 308.48 465.5 315.4 454.25 320.06C442.99 324.73 430.87 327.13 418.56 327.14Z" fill="url(#paint25_radial_36_267)" shape-rendering="crispEdges"/>
<path d="M418.56 347.14V337.14C432.15 337.13 445.61 334.47 458.08 329.3C470.55 324.14 482.01 316.47 491.59 306.89C501.17 297.31 508.84 285.85 514 273.38C519.18 260.91 521.83 247.45 521.84 233.86C521.83 220.27 519.17 206.81 514 194.34C508.84 181.87 501.17 170.41 491.59 160.83C482.01 151.25 470.55 143.58 458.08 138.42C445.61 133.24 432.15 130.59 418.56 130.58V120.58C433.43 120.58 448.22 123.5 461.91 129.19C475.6 134.86 488.16 143.27 498.66 153.76C509.15 164.26 517.57 176.82 523.23 190.51C528.91 204.2 531.83 218.99 531.84 233.86C531.84 248.73 528.92 263.52 523.23 277.21C517.56 290.9 509.15 303.46 498.66 313.96C488.16 324.45 475.6 332.87 461.91 338.53C448.22 344.21 433.43 347.13 418.56 347.14Z" fill="url(#paint26_radial_36_267)" shape-rendering="crispEdges"/>
<path d="M418.56 367.14V357.14C434.71 357.14 450.84 353.96 465.74 347.77C480.65 341.6 494.31 332.45 505.73 321.03C517.14 309.61 526.3 295.95 532.47 281.04C538.66 266.14 541.83 250.01 541.84 233.86C541.84 217.71 538.66 201.58 532.47 186.68C526.3 171.77 517.15 158.11 505.73 146.69C494.31 135.28 480.65 126.12 465.74 119.95C450.84 113.76 434.71 110.59 418.56 110.58V100.58C436 100.58 453.45 104.01 469.57 110.71C485.7 117.39 500.47 127.28 512.8 139.61C525.13 151.95 535.03 166.72 541.7 182.84C548.4 198.96 551.83 216.41 551.83 233.85C551.83 251.29 548.4 268.74 541.7 284.86C535.02 300.99 525.13 315.76 512.8 328.09C500.46 340.42 485.69 350.32 469.57 356.99C453.45 363.69 436 367.12 418.56 367.12L418.56 367.14Z" fill="url(#paint27_radial_36_267)" shape-rendering="crispEdges"/>
<path d="M418.56 377.14C437.28 377.14 456.07 373.45 473.4 366.25C490.74 359.07 506.62 348.43 519.87 335.18C533.12 321.93 543.76 306.05 550.94 288.71C558.15 271.38 561.83 252.59 561.83 233.87C561.83 215.15 558.14 196.36 550.94 179.03C543.76 161.69 533.12 145.81 519.87 132.56C506.62 119.31 490.74 108.67 473.4 101.49C456.07 94.2801 437.28 90.6001 418.56 90.6001V80.6001C438.56 80.6001 458.68 84.5501 477.23 92.2601C495.79 99.9401 512.77 111.32 526.94 125.5C541.11 139.67 552.49 156.65 560.18 175.21C567.89 193.76 571.84 213.88 571.84 233.88C571.84 253.88 567.89 274 560.18 292.55C552.5 311.11 541.12 328.09 526.94 342.26C512.77 356.43 495.79 367.81 477.23 375.5C458.68 383.21 438.56 387.16 418.56 387.16L418.56 377.14Z" fill="url(#paint28_radial_36_267)" shape-rendering="crispEdges"/>
<path d="M418.56 397.14C439.84 397.14 461.3 392.94 481.06 384.72C500.84 376.53 518.92 364.41 534.01 349.32C549.1 334.23 561.22 316.15 569.41 296.37C577.63 276.61 581.83 255.15 581.83 233.87C581.83 212.59 577.63 191.13 569.41 171.37C561.22 151.59 549.1 133.51 534.01 118.42C518.92 103.33 500.84 91.2101 481.06 83.0201C461.3 74.8001 439.84 70.6001 418.56 70.6001V60.6001C441.13 60.6001 463.91 65.0601 484.89 73.7801C505.89 82.4701 525.07 95.34 541.08 111.35C557.09 127.36 569.96 146.54 578.65 167.55C587.38 188.53 591.84 211.32 591.83 233.88C591.83 256.45 587.37 279.23 578.65 300.21C569.96 321.21 557.09 340.39 541.08 356.41C525.07 372.42 505.89 385.29 484.89 393.98C463.91 402.71 441.12 407.17 418.56 407.16L418.56 397.14Z" fill="url(#paint29_radial_36_267)" shape-rendering="crispEdges"/>
<path d="M418.56 427.14V417.14C442.41 417.14 466.53 412.43 488.72 403.19C510.94 393.99 531.22 380.39 548.16 363.45C565.09 346.52 578.7 326.23 587.9 304.01C597.13 281.82 601.85 257.7 601.85 233.85C601.85 210 597.14 185.88 587.9 163.69C578.7 141.47 565.1 121.19 548.16 104.25C531.23 87.3201 510.94 73.7101 488.72 64.5101C466.53 55.2801 442.41 50.5601 418.56 50.5601V40.5601C443.69 40.5501 469.14 45.5301 492.55 55.2701C515.99 64.9701 537.38 79.3201 555.23 97.1701C573.08 115.02 587.43 136.41 597.13 159.85C606.87 183.26 611.85 208.71 611.84 233.84C611.85 258.97 606.87 284.42 597.13 307.83C587.43 331.27 573.08 352.66 555.23 370.51C537.38 388.36 515.99 402.71 492.55 412.41C469.14 422.17 443.69 427.15 418.56 427.14Z" fill="url(#paint30_radial_36_267)" shape-rendering="crispEdges"/>
<path d="M418.56 447.14V437.14C444.97 437.15 471.76 431.91 496.38 421.67C521.04 411.46 543.53 396.37 562.3 377.6C581.07 358.83 596.16 336.34 606.37 311.68C616.62 287.05 621.85 260.27 621.84 233.86C621.85 207.45 616.61 180.66 606.37 156.04C596.16 131.38 581.07 108.89 562.3 90.1201C543.53 71.3501 521.04 56.2601 496.38 46.0501C471.75 35.8001 444.97 30.5701 418.56 30.5801V20.5801C446.26 20.5601 474.37 26.0601 500.21 36.8101C526.08 47.5201 549.68 63.35 569.37 83.04C589.06 102.73 604.89 126.32 615.6 152.2C626.35 178.04 631.85 206.16 631.83 233.85C631.85 261.55 626.35 289.66 615.6 315.5C604.89 341.37 589.06 364.97 569.37 384.66C549.68 404.35 526.09 420.18 500.21 430.89C474.37 441.66 446.26 447.16 418.56 447.14Z" fill="url(#paint31_radial_36_267)" shape-rendering="crispEdges"/>
<path d="M418.56 467.14V457.14C447.54 457.16 476.99 451.4 504.04 440.14C531.13 428.92 555.83 412.35 576.44 391.74C597.05 371.13 613.62 346.43 624.84 319.34C636.1 292.28 641.85 262.84 641.84 233.86C641.86 204.88 636.1 175.43 624.84 148.38C613.62 121.29 597.05 96.59 576.44 75.98C555.83 55.37 531.13 38.8 504.04 27.58C476.98 16.32 447.54 10.57 418.56 10.58V0.580005C448.82 0.560004 479.6 6.57001 507.87 18.34C536.18 30.06 561.98 47.38 583.51 68.91C605.04 90.44 622.35 116.24 634.08 144.55C645.85 172.82 651.86 203.6 651.84 233.86C651.86 264.12 645.85 294.9 634.08 323.17C622.36 351.48 605.04 377.28 583.51 398.81C561.98 420.34 536.18 437.65 507.87 449.38C479.6 461.15 448.82 467.16 418.56 467.14Z" fill="url(#paint32_radial_36_267)" shape-rendering="crispEdges"/>
</g>
<defs>
<filter id="filter0_dddd_36_267" x="-37.4399" y="0.140137" width="701.28" height="479" filterUnits="userSpaceOnUse" color-interpolation-filters="sRGB">
<feFlood flood-opacity="0" result="BackgroundImageFix"/>
<feColorMatrix in="SourceAlpha" type="matrix" values="0 0 0 0 0 0 0 0 0 0 0 0 0 0 0 0 0 0 127 0" result="hardAlpha"/>
<feOffset/>
<feComposite in2="hardAlpha" operator="out"/>
<feColorMatrix type="matrix" values="0 0 0 0 0.286275 0 0 0 0 0.207843 0 0 0 0 0.113725 0 0 0 0.02 0"/>
<feBlend mode="normal" in2="BackgroundImageFix" result="effect1_dropShadow_36_267"/>
<feColorMatrix in="SourceAlpha" type="matrix" values="0 0 0 0 0 0 0 0 0 0 0 0 0 0 0 0 0 0 127 0" result="hardAlpha"/>
<feOffset dx="1" dy="1"/>
<feGaussianBlur stdDeviation="0.5"/>
<feComposite in2="hardAlpha" operator="out"/>
<feColorMatrix type="matrix" values="0 0 0 0 0.286275 0 0 0 0 0.207843 0 0 0 0 0.113725 0 0 0 0.06 0"/>
<feBlend mode="normal" in2="effect1_dropShadow_36_267" result="effect2_dropShadow_36_267"/>
<feColorMatrix in="SourceAlpha" type="matrix" values="0 0 0 0 0 0 0 0 0 0 0 0 0 0 0 0 0 0 127 0" result="hardAlpha"/>
<feOffset dx="3" dy="3"/>
<feGaussianBlur stdDeviation="1.5"/>
<feComposite in2="hardAlpha" operator="out"/>
<feColorMatrix type="matrix" values="0 0 0 0 0.286275 0 0 0 0 0.207843 0 0 0 0 0.113725 0 0 0 0.06 0"/>
<feBlend mode="normal" in2="effect2_dropShadow_36_267" result="effect3_dropShadow_36_267"/>
<feColorMatrix in="SourceAlpha" type="matrix" values="0 0 0 0 0 0 0 0 0 0 0 0 0 0 0 0 0 0 127 0" result="hardAlpha"/>
<feOffset dx="6" dy="6"/>
<feGaussianBlur stdDeviation="3"/>
<feComposite in2="hardAlpha" operator="out"/>
<feColorMatrix type="matrix" values="0 0 0 0 0.286275 0 0 0 0 0.207843 0 0 0 0 0.113725 0 0 0 0.06 0"/>
<feBlend mode="normal" in2="effect3_dropShadow_36_267" result="effect4_dropShadow_36_267"/>
<feBlend mode="normal" in="SourceGraphic" in2="effect4_dropShadow_36_267" result="shape"/>
</filter>
<radialGradient id="paint0_radial_36_267" cx="0" cy="0" r="1" gradientUnits="userSpaceOnUse" gradientTransform="translate(656 472) rotate(-128.164) scale(805.91 1645.09)">
<stop stop-color="#FBFAF9" stop-opacity="0"/>
<stop offset="0.615341" stop-color="white"/>
</radialGradient>
<radialGradient id="paint1_radial_36_267" cx="0" cy="0" r="1" gradientUnits="userSpaceOnUse" gradientTransform="translate(656 472) rotate(-128.164) scale(805.91 1645.09)">
<stop stop-color="#FBFAF9" stop-opacity="0"/>
<stop offset="0.615341" stop-color="white"/>
</radialGradient>
<radialGradient id="paint2_radial_36_267" cx="0" cy="0" r="1" gradientUnits="userSpaceOnUse" gradientTransform="translate(656 472) rotate(-128.164) scale(805.91 1645.09)">
<stop stop-color="#FBFAF9" stop-opacity="0"/>
<stop offset="0.615341" stop-color="white"/>
</radialGradient>
<radialGradient id="paint3_radial_36_267" cx="0" cy="0" r="1" gradientUnits="userSpaceOnUse" gradientTransform="translate(656 472) rotate(-128.164) scale(805.91 1645.09)">
<stop stop-color="#FBFAF9" stop-opacity="0"/>
<stop offset="0.615341" stop-color="white"/>
</radialGradient>
<radialGradient id="paint4_radial_36_267" cx="0" cy="0" r="1" gradientUnits="userSpaceOnUse" gradientTransform="translate(656 472) rotate(-128.164) scale(805.91 1645.09)">
<stop stop-color="#FBFAF9" stop-opacity="0"/>
<stop offset="0.615341" stop-color="white"/>
</radialGradient>
<radialGradient id="paint5_radial_36_267" cx="0" cy="0" r="1" gradientUnits="userSpaceOnUse" gradientTransform="translate(656 472) rotate(-128.164) scale(805.91 1645.09)">
<stop stop-color="#FBFAF9" stop-opacity="0"/>
<stop offset="0.615341" stop-color="white"/>
</radialGradient>
<radialGradient id="paint6_radial_36_267" cx="0" cy="0" r="1" gradientUnits="userSpaceOnUse" gradientTransform="translate(656 472) rotate(-128.164) scale(805.91 1645.09)">
<stop stop-color="#FBFAF9" stop-opacity="0"/>
<stop offset="0.615341" stop-color="white"/>
</radialGradient>
<radialGradient id="paint7_radial_36_267" cx="0" cy="0" r="1" gradientUnits="userSpaceOnUse" gradientTransform="translate(656 472) rotate(-128.164) scale(805.91 1645.09)">
<stop stop-color="#FBFAF9" stop-opacity="0"/>
<stop offset="0.615341" stop-color="white"/>
</radialGradient>
<radialGradient id="paint8_radial_36_267" cx="0" cy="0" r="1" gradientUnits="userSpaceOnUse" gradientTransform="translate(656 472) rotate(-128.164) scale(805.91 1645.09)">
<stop stop-color="#FBFAF9" stop-opacity="0"/>
<stop offset="0.615341" stop-color="white"/>
</radialGradient>
<radialGradient id="paint9_radial_36_267" cx="0" cy="0" r="1" gradientUnits="userSpaceOnUse" gradientTransform="translate(656 472) rotate(-128.164) scale(805.91 1645.09)">
<stop stop-color="#FBFAF9" stop-opacity="0"/>
<stop offset="0.615341" stop-color="white"/>
</radialGradient>
<radialGradient id="paint10_radial_36_267" cx="0" cy="0" r="1" gradientUnits="userSpaceOnUse" gradientTransform="translate(656 472) rotate(-128.164) scale(805.91 1645.09)">
<stop stop-color="#FBFAF9" stop-opacity="0"/>
<stop offset="0.615341" stop-color="white"/>
</radialGradient>
<radialGradient id="paint11_radial_36_267" cx="0" cy="0" r="1" gradientUnits="userSpaceOnUse" gradientTransform="translate(656 472) rotate(-128.164) scale(805.91 1645.09)">
<stop stop-color="#FBFAF9" stop-opacity="0"/>
<stop offset="0.615341" stop-color="white"/>
</radialGradient>
<radialGradient id="paint12_radial_36_267" cx="0" cy="0" r="1" gradientUnits="userSpaceOnUse" gradientTransform="translate(656 472) rotate(-128.164) scale(805.91 1645.09)">
<stop stop-color="#FBFAF9" stop-opacity="0"/>
<stop offset="0.615341" stop-color="white"/>
</radialGradient>
<radialGradient id="paint13_radial_36_267" cx="0" cy="0" r="1" gradientUnits="userSpaceOnUse" gradientTransform="translate(656 472) rotate(-128.164) scale(805.91 1645.09)">
<stop stop-color="#FBFAF9" stop-opacity="0"/>
<stop offset="0.615341" stop-color="white"/>
</radialGradient>
<radialGradient id="paint14_radial_36_267" cx="0" cy="0" r="1" gradientUnits="userSpaceOnUse" gradientTransform="translate(656 472) rotate(-128.164) scale(805.91 1645.09)">
<stop stop-color="#FBFAF9" stop-opacity="0"/>
<stop offset="0.615341" stop-color="white"/>
</radialGradient>
<radialGradient id="paint15_radial_36_267" cx="0" cy="0" r="1" gradientUnits="userSpaceOnUse" gradientTransform="translate(656 472) rotate(-128.164) scale(805.91 1645.09)">
<stop stop-color="#FBFAF9" stop-opacity="0"/>
<stop offset="0.615341" stop-color="white"/>
</radialGradient>
<radialGradient id="paint16_radial_36_267" cx="0" cy="0" r="1" gradientUnits="userSpaceOnUse" gradientTransform="translate(656 472) rotate(-128.164) scale(805.91 1645.09)">
<stop stop-color="#FBFAF9" stop-opacity="0"/>
<stop offset="0.615341" stop-color="white"/>
</radialGradient>
<radialGradient id="paint17_radial_36_267" cx="0" cy="0" r="1" gradientUnits="userSpaceOnUse" gradientTransform="translate(656 472) rotate(-128.164) scale(805.91 1645.09)">
<stop stop-color="#FBFAF9" stop-opacity="0"/>
<stop offset="0.615341" stop-color="white"/>
</radialGradient>
<radialGradient id="paint18_radial_36_267" cx="0" cy="0" r="1" gradientUnits="userSpaceOnUse" gradientTransform="translate(656 472) rotate(-128.164) scale(805.91 1645.09)">
<stop stop-color="#FBFAF9" stop-opacity="0"/>
<stop offset="0.615341" stop-color="white"/>
</radialGradient>
<radialGradient id="paint19_radial_36_267" cx="0" cy="0" r="1" gradientUnits="userSpaceOnUse" gradientTransform="translate(656 472) rotate(-128.164) scale(805.91 1645.09)">
<stop stop-color="#FBFAF9" stop-opacity="0"/>
<stop offset="0.615341" stop-color="white"/>
</radialGradient>
<radialGradient id="paint20_radial_36_267" cx="0" cy="0" r="1" gradientUnits="userSpaceOnUse" gradientTransform="translate(656 472) rotate(-128.164) scale(805.91 1645.09)">
<stop stop-color="#FBFAF9" stop-opacity="0"/>
<stop offset="0.615341" stop-color="white"/>
</radialGradient>
<radialGradient id="paint21_radial_36_267" cx="0" cy="0" r="1" gradientUnits="userSpaceOnUse" gradientTransform="translate(656 472) rotate(-128.164) scale(805.91 1645.09)">
<stop stop-color="#FBFAF9" stop-opacity="0"/>
<stop offset="0.615341" stop-color="white"/>
</radialGradient>
<radialGradient id="paint22_radial_36_267" cx="0" cy="0" r="1" gradientUnits="userSpaceOnUse" gradientTransform="translate(656 472) rotate(-128.164) scale(805.91 1645.09)">
<stop stop-color="#FBFAF9" stop-opacity="0"/>
<stop offset="0.615341" stop-color="white"/>
</radialGradient>
<radialGradient id="paint23_radial_36_267" cx="0" cy="0" r="1" gradientUnits="userSpaceOnUse" gradientTransform="translate(656 472) rotate(-128.164) scale(805.91 1645.09)">
<stop stop-color="#FBFAF9" stop-opacity="0"/>
<stop offset="0.615341" stop-color="white"/>
</radialGradient>
<radialGradient id="paint24_radial_36_267" cx="0" cy="0" r="1" gradientUnits="userSpaceOnUse" gradientTransform="translate(656 472) rotate(-128.164) scale(805.91 1645.09)">
<stop stop-color="#FBFAF9" stop-opacity="0"/>
<stop offset="0.615341" stop-color="white"/>
</radialGradient>
<radialGradient id="paint25_radial_36_267" cx="0" cy="0" r="1" gradientUnits="userSpaceOnUse" gradientTransform="translate(656 472) rotate(-128.164) scale(805.91 1645.09)">
<stop stop-color="#FBFAF9" stop-opacity="0"/>
<stop offset="0.615341" stop-color="white"/>
</radialGradient>
<radialGradient id="paint26_radial_36_267" cx="0" cy="0" r="1" gradientUnits="userSpaceOnUse" gradientTransform="translate(656 472) rotate(-128.164) scale(805.91 1645.09)">
<stop stop-color="#FBFAF9" stop-opacity="0"/>
<stop offset="0.615341" stop-color="white"/>
</radialGradient>
<radialGradient id="paint27_radial_36_267" cx="0" cy="0" r="1" gradientUnits="userSpaceOnUse" gradientTransform="translate(656 472) rotate(-128.164) scale(805.91 1645.09)">
<stop stop-color="#FBFAF9" stop-opacity="0"/>
<stop offset="0.615341" stop-color="white"/>
</radialGradient>
<radialGradient id="paint28_radial_36_267" cx="0" cy="0" r="1" gradientUnits="userSpaceOnUse" gradientTransform="translate(656 472) rotate(-128.164) scale(805.91 1645.09)">
<stop stop-color="#FBFAF9" stop-opacity="0"/>
<stop offset="0.615341" stop-color="white"/>
</radialGradient>
<radialGradient id="paint29_radial_36_267" cx="0" cy="0" r="1" gradientUnits="userSpaceOnUse" gradientTransform="translate(656 472) rotate(-128.164) scale(805.91 1645.09)">
<stop stop-color="#FBFAF9" stop-opacity="0"/>
<stop offset="0.615341" stop-color="white"/>
</radialGradient>
<radialGradient id="paint30_radial_36_267" cx="0" cy="0" r="1" gradientUnits="userSpaceOnUse" gradientTransform="translate(656 472) rotate(-128.164) scale(805.91 1645.09)">
<stop stop-color="#FBFAF9" stop-opacity="0"/>
<stop offset="0.615341" stop-color="white"/>
</radialGradient>
<radialGradient id="paint31_radial_36_267" cx="0" cy="0" r="1" gradientUnits="userSpaceOnUse" gradientTransform="translate(656 472) rotate(-128.164) scale(805.91 1645.09)">
<stop stop-color="#FBFAF9" stop-opacity="0"/>
<stop offset="0.615341" stop-color="white"/>
</radialGradient>
<radialGradient id="paint32_radial_36_267" cx="0" cy="0" r="1" gradientUnits="userSpaceOnUse" gradientTransform="translate(656 472) rotate(-128.164) scale(805.91 1645.09)">
<stop stop-color="#FBFAF9" stop-opacity="0"/>
<stop offset="0.615341" stop-color="white"/>
</radialGradient>
</defs>
</svg>
