<svg width="20" height="20" viewBox="0 0 20 20" fill="none" xmlns="http://www.w3.org/2000/svg">
<circle cx="10" cy="10" r="10" fill="#1BB1FF"/>
<g clip-path="url(#clip0_10_10942)">
<path d="M13.4683 10.4471C13.3854 10.3121 13.3416 10.1568 13.3416 9.99836C13.3416 9.83996 13.3854 9.68465 13.4683 9.54964L15.7069 5.89708C15.7862 5.76698 15.8294 5.61813 15.8322 5.4658C15.835 5.31347 15.7972 5.16315 15.7227 5.03024C15.6482 4.89734 15.5397 4.78665 15.4083 4.70951C15.277 4.63238 15.1274 4.59158 14.9751 4.59131H12.9087C12.7621 4.59114 12.6178 4.6286 12.4898 4.70009C12.3617 4.77158 12.2541 4.87471 12.1773 4.99964L10.3394 8.00157L11.4226 9.76862H11.9058C11.9665 9.77234 12.0235 9.79907 12.0651 9.84334C12.1067 9.88762 12.1299 9.94611 12.1299 10.0069C12.1299 10.0677 12.1067 10.1262 12.0651 10.1704C12.0235 10.2147 11.9665 10.2414 11.9058 10.2452H11.4109L10.3394 11.9934L12.1778 14.9953C12.2547 15.1201 12.3623 15.2232 12.4903 15.2947C12.6183 15.3661 12.7625 15.4037 12.9092 15.4036H14.9751C15.1276 15.4036 15.2774 15.363 15.4091 15.2858C15.5407 15.2087 15.6493 15.0979 15.7239 14.9647C15.7984 14.8316 15.8361 14.681 15.833 14.5285C15.8299 14.3759 15.7863 14.227 15.7065 14.0969L13.4683 10.4471Z" fill="white"/>
<path d="M10.7026 10.2469H9.26316C9.19997 10.2469 9.13936 10.2218 9.09468 10.1771C9.05 10.1324 9.02489 10.0718 9.02489 10.0086C9.02489 9.9454 9.05 9.8848 9.09468 9.84011C9.13936 9.79543 9.19997 9.77033 9.26316 9.77033H10.7085C10.687 9.69301 10.655 9.61902 10.6134 9.55046L7.82233 5.00135C7.74529 4.87632 7.63748 4.77313 7.50919 4.70164C7.38091 4.63015 7.23643 4.59275 7.08957 4.59302H5.02412C4.87156 4.59299 4.72175 4.63364 4.59013 4.71079C4.45851 4.78794 4.34984 4.89879 4.27532 5.03191C4.2008 5.16504 4.16313 5.31563 4.16619 5.46816C4.16925 5.62069 4.21292 5.76965 4.29271 5.89969L6.53137 9.55225C6.61383 9.68731 6.65746 9.8425 6.65746 10.0007C6.65746 10.159 6.61383 10.3142 6.53137 10.4492L4.29271 14.1018C4.21304 14.2318 4.16945 14.3807 4.16646 14.5332C4.16346 14.6857 4.20115 14.8362 4.27566 14.9692C4.35016 15.1023 4.45878 15.2131 4.59034 15.2902C4.72189 15.3673 4.87163 15.408 5.02412 15.408H7.09002C7.23674 15.4082 7.38105 15.3707 7.50917 15.2992C7.63729 15.2278 7.74496 15.1246 7.82188 14.9997L10.6134 10.4506C10.6516 10.3867 10.6816 10.3183 10.7026 10.2469Z" fill="white"/>
</g>
<defs>
<clipPath id="clip0_10_10942">
<rect width="11.6667" height="11.6667" fill="white" transform="translate(4.1665 4.16675)"/>
</clipPath>
</defs>
</svg>
