<svg fill="none" xmlns="http://www.w3.org/2000/svg" viewBox="0 0 100 100"><g clip-path="url(#a)"><g clip-path="url(#b)" filter="url(#c)"><rect y=".001" width="100" height="100" rx="50" fill="#194D05"/><path fill-rule="evenodd" clip-rule="evenodd" d="M40.88 75.18a8.418 8.418 0 0 1-8.025-5.854l-4.64-14.584a4.794 4.794 0 0 0-4.57-3.341 8.416 8.416 0 0 1-8.025-5.856l-1.76-5.53c-.806-2.534 1.085-5.121 3.746-5.121h1.286c2.588 0 4.132-2.883 2.697-5.036-1.432-2.153.112-5.036 2.698-5.036h51.426c2.587 0 4.13 2.883 2.697 5.037-1.434 2.152.11 5.035 2.697 5.035h1.288c2.66 0 4.55 2.587 3.744 5.121l-1.759 5.53a8.416 8.416 0 0 1-8.025 5.856 4.795 4.795 0 0 0-4.57 3.34l-4.64 14.585a8.417 8.417 0 0 1-8.025 5.855H40.88Zm-4.31-28.675c0 2.703 2.026 4.896 4.525 4.896 2.498 0 4.522-2.193 4.522-4.896 0-2.704-2.024-4.897-4.523-4.897-2.498 0-4.523 2.193-4.523 4.897Zm26.859 0c0 2.703-2.025 4.896-4.522 4.896-2.5 0-4.524-2.193-4.524-4.896 0-2.704 2.025-4.897 4.524-4.897 2.497 0 4.522 2.193 4.522 4.897Z" fill="#BCEC79"/></g></g><defs><clipPath id="a"><path fill="#fff" d="M0 0h100v100H0z"/></clipPath><clipPath id="b"><path fill="#fff" transform="translate(0 .001)" d="M0 0h100v100H0z"/></clipPath><filter id="c" x="-.25" y="-.249" width="115.25" height="115.25" filterUnits="userSpaceOnUse" color-interpolation-filters="sRGB"><feFlood flood-opacity="0" result="BackgroundImageFix"/><feColorMatrix in="SourceAlpha" values="0 0 0 0 0 0 0 0 0 0 0 0 0 0 0 0 0 0 127 0" result="hardAlpha"/><feMorphology radius=".25" operator="dilate" in="SourceAlpha" result="effect1_dropShadow_314_307"/><feOffset/><feComposite in2="hardAlpha" operator="out"/><feColorMatrix values="0 0 0 0 0 0 0 0 0 0 0 0 0 0 0 0 0 0 0.02 0"/><feBlend in2="BackgroundImageFix" result="effect1_dropShadow_314_307"/><feColorMatrix in="SourceAlpha" values="0 0 0 0 0 0 0 0 0 0 0 0 0 0 0 0 0 0 127 0" result="hardAlpha"/><feMorphology radius=".125" in="SourceAlpha" result="effect2_dropShadow_314_307"/><feOffset dx=".25" dy=".25"/><feGaussianBlur stdDeviation=".125"/><feComposite in2="hardAlpha" operator="out"/><feColorMatrix values="0 0 0 0 0 0 0 0 0 0 0 0 0 0 0 0 0 0 0.06 0"/><feBlend in2="effect1_dropShadow_314_307" result="effect2_dropShadow_314_307"/><feColorMatrix in="SourceAlpha" values="0 0 0 0 0 0 0 0 0 0 0 0 0 0 0 0 0 0 127 0" result="hardAlpha"/><feMorphology radius=".375" in="SourceAlpha" result="effect3_dropShadow_314_307"/><feOffset dx=".75" dy=".75"/><feGaussianBlur stdDeviation=".375"/><feComposite in2="hardAlpha" operator="out"/><feColorMatrix values="0 0 0 0 0 0 0 0 0 0 0 0 0 0 0 0 0 0 0.06 0"/><feBlend in2="effect2_dropShadow_314_307" result="effect3_dropShadow_314_307"/><feColorMatrix in="SourceAlpha" values="0 0 0 0 0 0 0 0 0 0 0 0 0 0 0 0 0 0 127 0" result="hardAlpha"/><feMorphology radius=".75" in="SourceAlpha" result="effect4_dropShadow_314_307"/><feOffset dx="1.5" dy="1.5"/><feGaussianBlur stdDeviation=".75"/><feComposite in2="hardAlpha" operator="out"/><feColorMatrix values="0 0 0 0 0 0 0 0 0 0 0 0 0 0 0 0 0 0 0.06 0"/><feBlend in2="effect3_dropShadow_314_307" result="effect4_dropShadow_314_307"/><feColorMatrix in="SourceAlpha" values="0 0 0 0 0 0 0 0 0 0 0 0 0 0 0 0 0 0 127 0" result="hardAlpha"/><feMorphology radius="1.5" in="SourceAlpha" result="effect5_dropShadow_314_307"/><feOffset dx="3" dy="3"/><feGaussianBlur stdDeviation="1.5"/><feComposite in2="hardAlpha" operator="out"/><feColorMatrix values="0 0 0 0 0 0 0 0 0 0 0 0 0 0 0 0 0 0 0.06 0"/><feBlend in2="effect4_dropShadow_314_307" result="effect5_dropShadow_314_307"/><feColorMatrix in="SourceAlpha" values="0 0 0 0 0 0 0 0 0 0 0 0 0 0 0 0 0 0 127 0" result="hardAlpha"/><feMorphology radius="3" in="SourceAlpha" result="effect6_dropShadow_314_307"/><feOffset dx="6" dy="6"/><feGaussianBlur stdDeviation="3"/><feComposite in2="hardAlpha" operator="out"/><feColorMatrix values="0 0 0 0 0 0 0 0 0 0 0 0 0 0 0 0 0 0 0.06 0"/><feBlend in2="effect5_dropShadow_314_307" result="effect6_dropShadow_314_307"/><feColorMatrix in="SourceAlpha" values="0 0 0 0 0 0 0 0 0 0 0 0 0 0 0 0 0 0 127 0" result="hardAlpha"/><feMorphology radius="6" in="SourceAlpha" result="effect7_dropShadow_314_307"/><feOffset dx="10.5" dy="10.5"/><feGaussianBlur stdDeviation="5.25"/><feComposite in2="hardAlpha" operator="out"/><feColorMatrix values="0 0 0 0 0 0 0 0 0 0 0 0 0 0 0 0 0 0 0.06 0"/><feBlend in2="effect6_dropShadow_314_307" result="effect7_dropShadow_314_307"/><feColorMatrix in="SourceAlpha" values="0 0 0 0 0 0 0 0 0 0 0 0 0 0 0 0 0 0 127 0" result="hardAlpha"/><feOffset dx="-.125" dy="-.125"/><feComposite in2="hardAlpha" operator="out"/><feColorMatrix values="0 0 0 0 1 0 0 0 0 1 0 0 0 0 1 0 0 0 0.15 0"/><feBlend in2="effect7_dropShadow_314_307" result="effect8_dropShadow_314_307"/><feBlend in="SourceGraphic" in2="effect8_dropShadow_314_307" result="shape"/></filter></defs></svg>