<svg fill="none" xmlns="http://www.w3.org/2000/svg" viewBox="0 0 100 100"><g clip-path="url(#a)"><path d="M50 100c27.614 0 50-22.386 50-50S77.614 0 50 0 0 22.386 0 50s22.386 50 50 50Z" fill="#F0FF9B"/><path d="M50 100c27.614 0 50-22.386 50-50S77.614 0 50 0 0 22.386 0 50s22.386 50 50 50Z" fill="url(#b)"/><path d="M50 100c27.614 0 50-22.386 50-50S77.614 0 50 0 0 22.386 0 50s22.386 50 50 50Z" fill="url(#c)"/><path d="M50.022 10.901a39.098 39.098 0 1 0 0 78.197A39.098 39.098 0 0 0 82.845 71.18h.04V45.914H71.379v21.49A27.7 27.7 0 0 1 50.022 77.7a27.701 27.701 0 0 1 0-55.402 27.702 27.702 0 0 1 23.014 12.457l9.537-6.348a39.098 39.098 0 0 0-32.551-17.506Zm15.2 35c-2.819 4.242-6.515 8.059-10.296 11.834h16.452V45.914l-6.155-.013Z" fill="#232832"/><path d="M22.865 54.957c7.106-12.469 19.142-22.615 30.747-26.122-21.4 20.156-26.014 37.429-23.13 40.716l-5.5 4.02-8.232-17.677 6.115-.937Z" fill="#232832"/><path d="m24.983 73.572 5.5-4.021c2.474 2.1 11.863-1.787 17.283-5.966l12.158 5.06c-3.419 2.853-7.233 5.89-12.768 8.75l-4.49 4.644-17.683-8.468Z" fill="url(#d)"/></g><defs><radialGradient id="b" cx="0" cy="0" r="1" gradientUnits="userSpaceOnUse" gradientTransform="matrix(71.39385 -22.62443 20.1085 63.45456 24.317 92.886)"><stop stop-color="#91F5F5"/><stop offset="1" stop-color="#91F5F5" stop-opacity="0"/></radialGradient><radialGradient id="c" cx="0" cy="0" r="1" gradientUnits="userSpaceOnUse" gradientTransform="matrix(56.86209 43.44118 -88.35065 115.64609 20.215 9.84)"><stop stop-color="#FFB4FF"/><stop offset="1" stop-color="#FFB4FF" stop-opacity="0"/></radialGradient><linearGradient id="d" x1="48.466" y1="74.674" x2="52.469" y2="66.047" gradientUnits="userSpaceOnUse"><stop stop-color="#232832"/><stop offset="1" stop-color="#232832" stop-opacity="0"/></linearGradient><clipPath id="a"><path fill="#fff" d="M0 0h100v100H0z"/></clipPath></defs></svg>