<svg width="100" height="100" viewBox="0 0 100 100" fill="none" xmlns="http://www.w3.org/2000/svg">
<g clip-path="url(#clip0_1457_18276)">
<path d="M50 100C77.6142 100 100 77.6142 100 50C100 22.3858 77.6142 0 50 0C22.3858 0 0 22.3858 0 50C0 77.6142 22.3858 100 50 100Z" fill="url(#paint0_linear_1457_18276)"/>
<path fill-rule="evenodd" clip-rule="evenodd" d="M42.5552 28.1155C45.2351 26.4112 48.351 25.5772 50.4109 25.6496L50.523 25.6539C55.2588 25.851 58.4158 27.9325 60.4151 30.3073C62.4287 32.6992 63.2685 35.3892 63.3658 36.7521L63.3716 36.8387C63.5974 40.5017 61.5219 43.7013 58.9129 46.3076C56.3063 48.9117 53.1595 50.9311 51.221 52.2356C52.9766 53.4174 56.152 55.4263 58.8552 58.1399C61.5848 60.8801 63.8398 64.3458 63.6603 68.4121V68.4127L63.6602 68.4134C63.5428 69.9574 63.2861 71.0455 63.0166 72.0598L62.9006 72.491L62.8953 72.5104L66.9407 72.4275L66.9642 72.4271L66.977 72.4469C67.4329 73.1574 67.8423 74.3545 68.1437 75.4393C68.4329 76.4808 68.6243 77.4265 68.6619 77.7499C69.1879 77.7651 69.911 77.7694 70.2573 77.7698C69.9366 75.7935 69.0776 73.7514 68.1039 72.0488C67.1217 70.3312 66.0259 68.9643 65.254 68.3592L65.2373 68.3461L65.2379 68.3249C65.2547 67.7538 65.2477 67.1411 65.2426 66.6065C65.2376 66.0733 65.2343 65.6151 65.2591 65.3564L65.267 65.2742L65.3288 65.3289C66.4945 66.358 68.4347 67.8713 70.0712 70.3696C71.7085 72.8689 73.0413 76.3528 72.9991 81.325L72.9988 81.3667H72.9571C63.8622 81.3751 38.9216 81.3561 27.6303 81.3456H27.5898L27.5883 81.3051C27.4197 76.5851 28.621 73.2218 30.2031 70.7459C31.7845 68.2711 33.7456 66.6844 35.0907 65.5179L35.1544 65.4626L35.1602 65.5468C35.2611 67.0094 35.4264 68.2857 35.4963 68.7404L35.5 68.7642L35.4813 68.7794C33.2894 70.5642 31.1261 73.9118 30.2898 77.5044C30.9865 77.6184 31.3924 77.6968 31.6518 77.7488C31.8852 77.7955 31.9966 77.8199 32.0935 77.8298C32.1959 76.7379 32.6243 75.4284 33.0459 74.3889C33.2595 73.862 33.4718 73.4034 33.6398 73.0761C33.7238 72.9126 33.797 72.7813 33.8541 72.6904C33.8825 72.6452 33.9076 72.6089 33.9284 72.5835C33.9388 72.571 33.949 72.5598 33.959 72.5515C33.964 72.5473 33.9699 72.5431 33.9764 72.5397C33.9827 72.5364 33.9921 72.5327 34.0035 72.5327L34.6783 72.5321C36.1245 72.5294 36.9234 72.5182 38.004 72.512C36.0642 66.9018 38.2461 62.3461 41.305 58.967C44.3381 55.6162 48.2379 53.4165 49.8498 52.4832C46.066 49.5995 42.7711 47.2237 40.5025 44.6832C38.2216 42.129 36.9745 39.4045 37.3058 35.8258L37.3136 35.7457C37.6582 32.3605 39.8958 29.8069 42.5552 28.1155ZM52.9544 57.7043L50.9773 56.1479C51.0194 56.863 50.6408 59.3449 50.0098 59.8918C47.4647 63.194 42.7323 62.584 41.2389 68.7468C40.9116 70.0977 41.3791 72.2103 41.5544 73.0796C43.7839 71.8807 48.3692 70.0508 50.8932 69.4829C52.015 69.9737 55.3607 71.4475 59.7692 73.4162C62.4825 66.1597 59.7061 60.2073 52.8703 56.1268L52.9544 57.7043ZM49.7575 55.3276C47.8666 56.6507 43.0788 60.3702 42.6703 62.034C42.639 62.1617 42.7785 62.2245 42.8801 62.1411L46.2712 59.3554L49.7995 56.2741C49.7925 56.0848 49.7743 55.6304 49.7575 55.3276ZM52.8493 31.9386C45.9504 31.6525 44.4991 34.0208 43.1319 35.0515C42.9777 34.8061 42.4756 34.0587 41.7016 33.0323C40.5448 34.9042 41.6256 37.8853 42.0802 38.543C43.0689 39.9733 48.9792 42.7286 50.0098 43.9065C50.8031 44.8132 51.0755 46.6969 50.9983 47.4611C51.2003 47.2255 52.3585 46.3954 52.9124 46.0098C52.8773 46.5216 52.8493 47.6084 52.8282 48.7231C59.2434 43.9696 62.4194 38.9426 59.3485 32.8009C59.3065 32.8781 59.1003 33.2174 58.6124 33.9577C58.0655 33.4109 57.6448 32.212 52.8493 31.9386ZM42.3292 41.61C42.2212 41.551 42.1223 41.6579 42.1965 41.7561C43.3291 43.2541 47.2663 46.2342 49.7932 47.2594C49.8996 47.3026 49.9814 47.231 49.9138 47.1382C49.2008 46.1601 44.6925 42.8999 42.3292 41.61Z" fill="white"/>
<path d="M34.603 59.387C33.642 60.4853 30.491 65.108 29.3342 67.5373C31.5356 65.2658 36.2962 60.6279 37.1375 59.6814C38.6123 58.0223 42.9427 55.317 42.7429 51.4469C42.806 48.2078 37.9473 44.2009 36.7694 43.0651C35.5915 41.9293 30.1229 36.0611 28.9345 33.6422C29.5971 37.0812 32.6574 41.8873 34.6976 44.1273C36.1384 45.9782 41.3231 49.6065 40.8814 51.6888C40.8211 54.1708 36.5906 57.1154 34.603 59.387Z" fill="white"/>
<path d="M66.7801 59.6394C67.696 60.7756 70.5555 65.1921 71.7124 67.6215C69.5109 65.3499 65.0027 60.6279 64.1614 59.6814C62.6866 58.0223 58.3562 55.317 58.556 51.4469C58.493 48.2078 62.8415 43.6264 64.1652 42.3921C65.7217 40.9408 70.2506 35.9769 71.4389 33.5581C70.7764 36.997 68.8136 41.2983 66.0582 43.9065C64.6174 45.7574 59.9758 49.6065 60.4175 51.6888C60.4778 54.1708 64.7962 57.1785 66.7801 59.6394Z" fill="white"/>
<path d="M27.6094 22.095C27.5253 25.3761 29.6496 32.1278 35.1603 36.04C35.1498 34.9358 35.3707 33.842 35.7493 33.1164C32.4471 30.5819 30.186 25.7863 30.1755 21.6953C42.8866 21.6953 68.6411 21.6995 70.3069 21.7164C70.4857 26.2806 66.847 31.0656 64.4387 33.0954C64.8698 33.6843 65.2379 34.8411 65.3115 35.7456C70.5593 31.8754 72.894 26.0282 72.894 22.3894L72.8099 18.6034L27.5884 18.5824C27.5814 18.4141 27.5757 18.8811 27.6094 22.095Z" fill="white"/>
<path d="M43.9102 70.2822C43.9102 70.561 43.6842 70.787 43.4054 70.787C43.1266 70.787 42.9006 70.561 42.9006 70.2822C42.9006 70.0034 43.1266 69.7774 43.4054 69.7774C43.6842 69.7774 43.9102 70.0034 43.9102 70.2822Z" fill="white"/>
<path d="M46.4131 68.4313C46.4131 68.8378 46.0836 69.1674 45.677 69.1674C45.2704 69.1674 44.9408 68.8378 44.9408 68.4313C44.9408 68.0247 45.2704 67.6951 45.677 67.6951C46.0836 67.6951 46.4131 68.0247 46.4131 68.4313Z" fill="white"/>
<path d="M52.9335 43.1913C52.9335 43.5979 52.6039 43.9275 52.1973 43.9275C51.7907 43.9275 51.4611 43.5979 51.4611 43.1913C51.4611 42.7848 51.7907 42.4552 52.1973 42.4552C52.6039 42.4552 52.9335 42.7848 52.9335 43.1913Z" fill="white"/>
<path d="M54.1534 39.826C54.1534 40.2326 53.8238 40.5622 53.4172 40.5622C53.0107 40.5622 52.6811 40.2326 52.6811 39.826C52.6811 39.4194 53.0107 39.0898 53.4172 39.0898C53.8238 39.0898 54.1534 39.4194 54.1534 39.826Z" fill="white"/>
<path d="M49.8205 39.0267C49.8205 39.4333 49.4909 39.7629 49.0844 39.7629C48.6778 39.7629 48.3482 39.4333 48.3482 39.0267C48.3482 38.6202 48.6778 38.2906 49.0844 38.2906C49.4909 38.2906 49.8205 38.6202 49.8205 39.0267Z" fill="white"/>
<path d="M55.7835 63.7198C55.7835 64.1264 55.4539 64.456 55.0473 64.456C54.6407 64.456 54.3111 64.1264 54.3111 63.7198C54.3111 63.3132 54.6407 62.9836 55.0473 62.9836C55.4539 62.9836 55.7835 63.3132 55.7835 63.7198Z" fill="white"/>
<path d="M55.2051 60.6227C55.2051 60.9218 54.9626 61.1643 54.6634 61.1643C54.3643 61.1643 54.1218 60.9218 54.1218 60.6227C54.1218 60.3235 54.3643 60.081 54.6634 60.081C54.9626 60.081 55.2051 60.3235 55.2051 60.6227Z" fill="white"/>
<path d="M52.4812 60.2914C52.4812 60.5528 52.2694 60.7646 52.008 60.7646C51.7466 60.7646 51.5347 60.5528 51.5347 60.2914C51.5347 60.03 51.7466 59.8181 52.008 59.8181C52.2694 59.8181 52.4812 60.03 52.4812 60.2914Z" fill="white"/>
<path d="M55.4259 42.1607C55.4259 42.4221 55.214 42.6339 54.9527 42.6339C54.6913 42.6339 54.4794 42.4221 54.4794 42.1607C54.4794 41.8993 54.6913 41.6875 54.9527 41.6875C55.214 41.6875 55.4259 41.8993 55.4259 42.1607Z" fill="white"/>
<path d="M49.3788 67.143C49.3788 67.5815 49.0234 67.937 48.5848 67.937C48.1463 67.937 47.7908 67.5815 47.7908 67.143C47.7908 66.7045 48.1463 66.349 48.5848 66.349C49.0234 66.349 49.3788 66.7045 49.3788 67.143Z" fill="white"/>
<path d="M52.6916 66.1123C52.6916 66.6612 52.2466 67.1062 51.6978 67.1062C51.1489 67.1062 50.7039 66.6612 50.7039 66.1123C50.7039 65.5635 51.1489 65.1185 51.6978 65.1185C52.2466 65.1185 52.6916 65.5635 52.6916 66.1123Z" fill="white"/>
<path d="M46.9705 38.3484C46.9705 38.8973 46.5256 39.3422 45.9767 39.3422C45.4278 39.3422 44.9829 38.8973 44.9829 38.3484C44.9829 37.7995 45.4278 37.3546 45.9767 37.3546C46.5256 37.3546 46.9705 37.7995 46.9705 38.3484Z" fill="white"/>
<path d="M58.034 38.3905C58.034 38.9394 57.5891 39.3843 57.0402 39.3843C56.4913 39.3843 56.0464 38.9394 56.0464 38.3905C56.0464 37.8416 56.4913 37.3967 57.0402 37.3967C57.5891 37.3967 58.034 37.8416 58.034 38.3905Z" fill="white"/>
<path d="M51.1562 35.7508C51.1562 36.3752 50.65 36.8813 50.0256 36.8813C49.4012 36.8813 48.8951 36.3752 48.8951 35.7508C48.8951 35.1264 49.4012 34.6203 50.0256 34.6203C50.65 34.6203 51.1562 35.1264 51.1562 35.7508Z" fill="white"/>
<path d="M54.4268 36.6973C54.4268 37.1939 54.0243 37.5965 53.5277 37.5965C53.0311 37.5965 52.6285 37.1939 52.6285 36.6973C52.6285 36.2007 53.0311 35.7981 53.5277 35.7981C54.0243 35.7981 54.4268 36.2007 54.4268 36.6973Z" fill="white"/>
<path d="M58.5388 70.2769C58.5388 70.4773 58.3764 70.6398 58.176 70.6398C57.9756 70.6398 57.8132 70.4773 57.8132 70.2769C57.8132 70.0765 57.9756 69.9141 58.176 69.9141C58.3764 69.9141 58.5388 70.0765 58.5388 70.2769Z" fill="white"/>
<path d="M57.2242 66.8327C57.2242 67.5355 56.6545 68.1052 55.9517 68.1052C55.2489 68.1052 54.6792 67.5355 54.6792 66.8327C54.6792 66.1299 55.2489 65.5602 55.9517 65.5602C56.6545 65.5602 57.2242 66.1299 57.2242 66.8327Z" fill="white"/>
</g>
<defs>
<linearGradient id="paint0_linear_1457_18276" x1="9.5" y1="86.75" x2="80.25" y2="7.5" gradientUnits="userSpaceOnUse">
<stop/>
<stop offset="1" stop-color="#333333"/>
</linearGradient>
<clipPath id="clip0_1457_18276">
<rect width="100" height="100" fill="white"/>
</clipPath>
</defs>
</svg>
