<svg fill="none" xmlns="http://www.w3.org/2000/svg" viewBox="0 0 100 100"><g clip-path="url(#a)"><circle cx="50" cy="50" r="50" fill="#1BB1FF"/><g clip-path="url(#b)" fill="#fff"><path d="M67.344 52.238a4.289 4.289 0 0 1 0-4.487l11.194-18.263a4.293 4.293 0 0 0-3.66-6.529H64.546a4.287 4.287 0 0 0-3.657 2.042L51.7 40.01l5.417 8.834h2.416a1.194 1.194 0 0 1 0 2.383h-2.475L51.7 59.97l9.192 15.01a4.295 4.295 0 0 0 3.657 2.041h10.33a4.29 4.29 0 0 0 3.656-6.533l-11.19-18.25Z"/><path d="M53.52 51.238h-7.198a1.191 1.191 0 1 1 0-2.383h7.226a4.364 4.364 0 0 0-.475-1.1L39.117 25.01a4.294 4.294 0 0 0-3.663-2.041H25.126a4.29 4.29 0 0 0-3.657 6.533l11.194 18.263a4.303 4.303 0 0 1 0 4.485L21.469 70.513a4.29 4.29 0 0 0 3.657 6.53h10.33a4.292 4.292 0 0 0 3.66-2.04l13.957-22.746c.191-.32.341-.662.446-1.019Z"/></g></g><defs><clipPath id="a"><path fill="#fff" d="M0 0h100v100H0z"/></clipPath><clipPath id="b"><path fill="#fff" transform="translate(20.836 20.84)" d="M0 0h58.333v58.333H0z"/></clipPath></defs></svg>