<svg width="460" height="460" viewBox="0 0 460 460" fill="none" xmlns="http://www.w3.org/2000/svg">
<g clip-path="url(#clip0_27795_127)">
<path d="M230 0C102.97 0 0 102.97 0 230V460H460V230C460 102.97 357.03 0 230 0Z" fill="white"/>
<path d="M316.25 418.04C348.006 418.04 373.75 392.296 373.75 360.54C373.75 328.784 348.006 303.04 316.25 303.04C284.494 303.04 258.75 328.784 258.75 360.54C258.75 392.296 284.494 418.04 316.25 418.04Z" fill="#1A1A1A"/>
<path d="M143.75 418.04C175.506 418.04 201.25 392.296 201.25 360.54C201.25 328.784 175.506 303.04 143.75 303.04C111.994 303.04 86.25 328.784 86.25 360.54C86.25 392.296 111.994 418.04 143.75 418.04Z" fill="#1A1A1A"/>
<path d="M316.251 378.51C326.175 378.51 334.221 370.465 334.221 360.54C334.221 350.615 326.175 342.57 316.251 342.57C306.326 342.57 298.281 350.615 298.281 360.54C298.281 370.465 306.326 378.51 316.251 378.51Z" fill="#05D690"/>
<path d="M143.751 378.51C153.675 378.51 161.721 370.465 161.721 360.54C161.721 350.615 153.675 342.57 143.751 342.57C133.826 342.57 125.781 350.615 125.781 360.54C125.781 370.465 133.826 378.51 143.751 378.51Z" fill="#FF0000"/>
</g>
<defs>
<clipPath id="clip0_27795_127">
<rect width="460" height="460" fill="white"/>
</clipPath>
</defs>
</svg>
