<svg fill="none" viewBox="0 0 36 36" xmlns="http://www.w3.org/2000/svg" xmlns:xlink="http://www.w3.org/1999/xlink"><clipPath id="a"><path d="m0 0h36v36h-36z"/></clipPath><mask id="b" height="36" maskUnits="userSpaceOnUse" width="36" x="0" y="0"><path d="m36 0h-36v36h36z" fill="#fff"/></mask><g clip-path="url(#a)"><g mask="url(#b)"><path d="m36 17.858c.045 9.908-7.978 17.975-17.918 18.02-9.942.045-18.037-7.95-18.082-17.858s7.978-17.975 17.92-18.02c9.94-.043 18.034 7.95 18.08 17.858z" fill="#ffe866"/><path d="m27.129 11.52c-1.307-.377-2.66-.912-4.031-1.452-.08-.342-.383-.769-1-1.292-.896-.775-2.579-.754-4.032-.412-1.606-.376-3.192-.51-4.713-.147-12.446 3.418-5.39 11.754-9.96 20.135.65 1.374 7.825 7.976 17.8 7.242 0 0-3.468-8.305 4.358-12.292 6.348-3.233 10.934-9.238 1.577-11.784v.002z" fill="#4bcc00"/><path d="m18.927 13.518a3.474 3.474 0 0 1 -3.48 3.469 3.474 3.474 0 0 1 -3.48-3.469 3.473 3.473 0 0 1 3.48-3.467 3.474 3.474 0 0 1 3.48 3.467z" fill="#fff"/><path d="m31.485 18.51c-2.82 1.98-6.028 3.482-10.576 3.482-2.129 0-2.561-2.255-3.969-1.15-.727.57-3.288 1.847-5.32 1.75-2.052-.097-5.326-1.285-6.247-5.608-.364 4.323-.55 7.508-2.179 11.159 4 5.817 10.976 8.712 17.998 7.453-.754-5.25 3.85-10.391 6.444-13.023.982-.996 2.864-2.623 3.849-4.063z" fill="#4bcc00"/><path d="m16.914 16.324c1.128 0 2.042-1.267 2.042-2.83 0-1.562-.914-2.829-2.042-2.829s-2.042 1.267-2.042 2.83c0 1.562.914 2.829 2.042 2.829z" fill="#0d1217"/><path d="m17.731 8.358c1.114.44 5.183 1.781 6.944 2.308-1.798-2.951-4.522-2.781-6.944-2.308z" fill="#35af00"/><path d="m16.914 13.494-2.45-1.616v3.233z" fill="#fff"/></g></g></svg>