<svg xmlns="http://www.w3.org/2000/svg" fill="none" viewBox="0 0 48 48"><circle cx="24" cy="24" r="24" fill="url(#a)"/><path stroke="#000" stroke-linecap="round" stroke-linejoin="round" stroke-width="1.75" d="m34 25.763-10 9.904-10-9.904a6.668 6.668 0 1 1 10-8.755A6.664 6.664 0 0 1 33.722 16 6.665 6.665 0 0 1 34 25.77M24 17l-4.39 4.39a1.333 1.333 0 0 0 0 1.886l.723.724c.92.92 2.414.92 3.334 0L25 22.667a4.243 4.243 0 0 1 6 0l3 3m-9.333 4 2.666 2.666m.667-6L30.667 29"/><defs><linearGradient id="a" x1="-.581" x2="52.454" y1="26.378" y2="26.205" gradientUnits="userSpaceOnUse"><stop stop-color="#B3AEF5"/><stop offset=".26" stop-color="#D7CBE7"/><stop offset=".458" stop-color="#E5C8C8"/><stop offset=".906" stop-color="#EAA879"/></linearGradient></defs></svg>