<svg width="200" height="59" viewBox="0 0 200 59" fill="none" xmlns="http://www.w3.org/2000/svg">
<g clip-path="url(#clip0_2001_169)">
<path d="M189.307 37.8335C184.882 37.8335 181.32 33.9552 181.32 29.2174C181.32 24.4795 184.923 20.6013 189.307 20.6013C193.691 20.6013 197.296 24.4795 197.296 29.2174C197.296 33.9552 193.734 37.8335 189.307 37.8335ZM197.334 18.3267V21.7737C195.375 19.3859 192.516 17.8955 189.307 17.8955C183.433 17.8955 178.693 22.9487 178.693 29.177C178.693 35.4053 183.47 40.4558 189.307 40.4558C192.519 40.4558 195.378 38.9682 197.334 36.5775V40.0245H199.958V18.3267H197.334Z" fill="#090B09"/>
<path d="M168.513 22.4003V18.3254H165.888V40.026H168.513V29.4883C168.513 25.5724 171.213 22.1254 174.975 21.263C175.915 21.0663 176.933 20.9477 178.07 20.9477V18.3228C176.777 18.3228 175.524 18.4386 174.43 18.7135C172.043 19.3011 170.006 20.592 168.518 22.3976H168.516L168.513 22.4003Z" fill="#090B09"/>
<path d="M151.95 37.834C147.173 37.834 143.335 33.956 143.335 29.218C143.335 24.4801 147.213 20.6019 151.95 20.6019C156.687 20.6019 160.564 24.4801 160.564 29.218C160.564 33.956 156.727 37.834 151.95 37.834ZM151.95 17.9365C145.726 17.9365 140.671 22.9897 140.671 29.2153C140.671 35.4408 145.723 40.4969 151.95 40.4969C158.177 40.4969 163.227 35.4436 163.227 29.2153C163.227 22.987 158.174 17.9365 151.95 17.9365Z" fill="#090B09"/>
<path d="M132.094 20.9547H138.946V18.3297H132.094V13.5137H129.47V18.3297H126.492V20.9547H129.47V40.0302H138.946V37.4051H132.094V20.9574V20.9547Z" fill="#090B09"/>
<path d="M114.084 22.4003V18.3254H111.459V40.026H114.084V29.4883C114.084 25.5724 116.784 22.1254 120.545 21.263C121.486 21.0663 122.504 20.9477 123.641 20.9477V18.3228C122.348 18.3228 121.095 18.4386 120.001 18.7135C117.611 19.3011 115.577 20.592 114.086 22.3976L114.084 22.4003Z" fill="#090B09"/>
<path d="M97.7522 20.5978C101.905 20.5978 105.389 23.7726 106.014 27.8826H89.5287C90.116 23.7295 93.6027 20.5978 97.7522 20.5978ZM97.7522 37.7949C93.6002 37.7949 90.116 34.6203 89.4909 30.5102H108.719V29.2166C108.719 23.0288 103.783 17.9756 97.755 17.9756C91.7274 17.9756 86.7909 23.0288 86.7909 29.2166C86.7909 35.4045 91.7274 40.4577 97.755 40.4577C102.101 40.4577 106.016 37.8326 107.779 33.7605H104.842C103.317 36.2642 100.654 37.8354 97.755 37.7949H97.7522Z" fill="#090B09"/>
<path d="M74.2562 37.7946C69.6729 37.7946 65.9166 33.9163 65.9166 29.1785C65.9166 24.4407 69.6754 20.5625 74.2562 20.5625C77.2336 20.5625 79.8553 22.166 81.3429 24.5969H84.2797C82.5581 20.6811 78.7184 17.9375 74.2562 17.9375C68.2231 17.9375 63.2921 22.9907 63.2921 29.1785C63.2921 35.3664 68.2286 40.4197 74.2562 40.4197C78.6023 40.4197 82.5175 37.7974 84.2797 33.7602H81.3429C79.8553 36.2664 77.1934 37.7946 74.2562 37.7946Z" fill="#090B09"/>
<path d="M50.9333 15.5202V1.4541H0.92865V15.5202" stroke="#090B09" stroke-width="1.72591" stroke-miterlimit="10"/>
<path d="M25.9318 1.4541L0.92865 43.6473" stroke="#090B09" stroke-width="1.72591" stroke-miterlimit="10"/>
<path d="M25.93 1.4541L50.9332 43.6472" stroke="#090B09" stroke-width="1.72591" stroke-miterlimit="10"/>
<path d="M25.9319 29.5829V1.4541" stroke="#090B09" stroke-width="1.72591" stroke-miterlimit="10"/>
<path d="M25.9315 57.7092V29.582" stroke="#090B09" stroke-width="1.72591" stroke-miterlimit="10"/>
<path d="M25.9301 29.582L0.928589 43.6465" stroke="#090B09" stroke-width="1.72591" stroke-miterlimit="10"/>
<path d="M0.928589 15.5195L25.9352 29.5822L50.9351 15.5195" stroke="#090B09" stroke-width="1.72591" stroke-miterlimit="10"/>
<path d="M50.933 43.6464L25.9298 29.582" stroke="#090B09" stroke-width="1.72591" stroke-miterlimit="10"/>
<path d="M50.9332 15.5195V43.6465L25.9352 57.7094L0.928589 43.6465V15.5195" stroke="#090B09" stroke-width="1.72591" stroke-miterlimit="10"/>
<path d="M0.92865 20.3838V15.5202L25.9318 1.4541" stroke="#090B09" stroke-width="1.72591" stroke-miterlimit="10"/>
<path d="M50.9332 20.3838V15.5202L25.93 1.4541" stroke="#090B09" stroke-width="1.72591" stroke-miterlimit="10"/>
</g>
<defs>
<clipPath id="clip0_2001_169">
<rect width="200" height="58.2043" fill="white" transform="translate(0 0.523438)"/>
</clipPath>
</defs>
</svg>
