<svg width="110" height="67" viewBox="0 0 110 67" fill="none" xmlns="http://www.w3.org/2000/svg">
<g clip-path="url(#clip0_2001_149)">
<path d="M39.8331 64.8241L30.9297 59.9717L28.7783 66.3903L39.8164 64.8282C39.7828 64.8282 39.766 64.8282 39.8331 64.8241Z" fill="#333333"/>
<path d="M39.8327 64.8247L39.816 64.8289C39.8576 64.8289 39.9283 64.8247 39.8327 64.8247Z" fill="#333333"/>
<path d="M70.4812 61.7016L77.6485 59.5911L80.3409 51.0952L73.723 51.5481L70.4812 61.7016Z" fill="#333333"/>
<path d="M87.5373 7.26981L82.0601 3.71777L78.9944 13.4682L85.021 15.2796L87.5373 7.26981Z" fill="#333333"/>
<path d="M50.5813 4.99303C50.5813 4.99303 54.2929 6.13135 55.7566 6.54678L61.0324 8.10885L61.1246 0.859375L51.8478 2.70395L50.5813 4.99303Z" fill="#333333"/>
<path d="M13.7515 32.0703L20.2645 32.0869L22.5836 24.8125L16.662 23.2422C16.0329 25.2404 14.3932 30.072 13.7515 32.0703Z" fill="#333333"/>
<path d="M1.63141 25.312L6.50463 30.3887L9.3103 21.382L3.3299 19.7949L1.63141 25.312Z" fill="#333333"/>
<path d="M104.85 54.3807C104.749 51.8299 104.04 50.9949 102.535 49.4287L94.6838 49.9521C96.8729 51.3273 98.2149 53.0305 98.4918 55.3155C98.7979 57.8248 96.0719 60.7245 93.434 60.7245C91.962 60.7245 91.2281 59.5697 91.2281 58.2444C91.27 57.2556 91.6181 55.9718 92.1381 55.1161H92.0961H85.4783C84.9583 56.4455 84.5264 57.9453 84.5264 59.3577C84.5264 64.1976 88.8082 65.4398 92.872 65.4398C97.1078 65.4398 100.614 64.6256 102.82 60.7245C103.814 58.9631 104.933 56.4372 104.85 54.3807Z" fill="#333333"/>
<path d="M22.005 1.51562L1.59365 1.53224L0 6.54664L7.48178 6.53833L3.78283 18.1957L9.76742 19.7826L13.9235 6.53417L20.4113 6.52586L22.005 1.51562Z" fill="#333333"/>
<path d="M24.2321 19.4631C24.9661 19.4173 25.7041 19.4173 26.4381 19.4173C27.6501 19.4132 29.466 19.5004 29.466 21.1706C29.4702 22.3254 29.0382 23.7836 28.6944 24.8971C28.0485 27.1695 27.2727 29.4379 27.1427 31.7519L33.8444 31.7435C33.6683 28.017 36 24.7599 35.9958 21.0749C35.9958 18.5906 34.0918 17.606 31.8859 17.2197L32.5317 17.1324C37.3336 16.4843 40.0093 12.7578 40.0051 8.08823C40.0009 2.91182 35.6309 1.45777 31.1771 1.46192L23.4814 1.47023C21.2922 8.20041 19.2164 14.968 17.0901 21.7272L23.0075 23.2934L24.2321 19.4631ZM28.3714 6.21873L30.5355 6.21459C32.1375 6.21459 33.7353 6.5968 33.7395 8.48291C33.7437 10.7969 32.0578 14.6979 29.2899 14.6979L25.7419 14.7021L28.3714 6.21873Z" fill="#333333"/>
<path d="M42.3656 31.8257L45.817 25.3531L54.0788 25.3448L53.8272 31.8548L60.3151 31.8507L60.831 9.68675L55.2574 8.01251C54.7498 12.1711 54.4647 16.3754 54.4647 20.5464H54.4228L48.1949 20.5506C50.4344 16.3546 52.5817 12.1254 54.5151 7.78817L50.0486 6.44629L35.6177 31.8298L42.3656 31.8257Z" fill="#333333"/>
<path d="M88.2963 31.7853L89.9361 26.854L81.2422 26.8665L84.4631 16.7878L78.4365 14.9766L73.0728 31.7978L88.2963 31.7853Z" fill="#333333"/>
<path d="M48.0274 33.7251H39.5097L31.5121 58.5104L41.6905 64.0026C47.7842 63.7741 52.0535 59.3081 52.0535 53.1761C52.0535 50.8206 50.5815 48.9802 48.2916 48.3363C52.7916 47.3101 55.6854 44.4393 55.6854 39.7283C55.6811 35.1377 52.0913 33.7251 48.0274 33.7251ZM44.5256 57.5009C43.3135 59.2997 42.0176 59.4286 39.9837 59.4286H37.3458L40.2437 50.5215C42.3615 50.6046 46.1234 50.0936 46.1234 53.1761C46.1234 54.5429 45.3057 56.3876 44.5256 57.5009ZM44.0056 46.1884H41.5815L44.1314 38.349C46.0353 38.4363 49.6253 37.838 49.6253 40.7502C49.6714 44.1777 47.4654 46.1884 44.0056 46.1884Z" fill="#333333"/>
<path d="M68.6573 12.0713L62.1946 33.4749L56.4868 50.8362L63.3396 50.3128L68.2883 34.8667H68.2966L74.9816 13.9449C74.0505 13.6873 70.3432 12.5075 68.6573 12.0713Z" fill="#333333"/>
<path d="M71.8614 33.7695L70.2594 38.7756H77.7454L74.2435 49.9219L80.7775 49.4774L84.187 38.7756H90.6707L92.2727 33.7695H71.8614Z" fill="#333333"/>
<path d="M101.528 33.4673C94.8267 33.4673 90.8468 38.0911 90.8468 44.5181C90.8551 45.4528 91.6981 47.7544 93.4217 48.5229L101.482 47.9828C100.111 46.8363 97.6868 44.1317 97.6868 42.6943C97.6868 40.721 98.7983 38.141 101.092 38.141C102.648 38.141 103.6 38.5689 103.6 40.2391C103.6 41.3109 103.08 42.2955 102.778 43.3257H109.006C109.396 42.4242 110 40.3678 110 39.4247C110.004 34.751 105.42 33.4673 101.528 33.4673Z" fill="#333333"/>
<path d="M27.6292 33.9043C24.5802 33.9043 24.1441 36.1352 23.3892 38.5032C23.1376 39.3549 22.6594 40.3936 22.6594 41.2867C22.6594 43.0067 24.1986 43.3349 25.6287 43.3349C27.3775 43.3473 28.3085 42.7657 28.9292 41.1371C29.3528 40.0238 30.4557 36.9619 30.4557 35.8859C30.4557 34.3613 28.904 33.9043 27.6292 33.9043ZM28.4805 36.0936C28.4805 36.476 28.0444 37.7222 27.8975 38.1585L27.2223 40.2439C26.9581 41.0333 26.6394 41.939 25.6329 41.939C25.0626 41.939 24.6935 41.6107 24.6935 41.0208C24.6935 40.2564 25.289 38.8398 25.5406 38.0505C25.7922 37.2653 26.1236 35.6991 27.0001 35.3957C27.1972 35.3293 27.4111 35.3043 27.625 35.3043C28.0233 35.3043 28.5015 35.6575 28.5015 36.0812L28.4805 36.0936Z" fill="#333333"/>
<path d="M35.3874 39.2212L35.8487 37.709H33.1982L33.9153 35.4531H36.7001L37.1907 33.9409H32.3636L29.4615 43.2136H31.4913L32.7494 39.2212H35.3874Z" fill="#333333"/>
</g>
<defs>
<clipPath id="clip0_2001_149">
<rect width="110" height="65.5319" fill="white" transform="translate(0 0.859375)"/>
</clipPath>
</defs>
</svg>
