<svg fill="none" xmlns="http://www.w3.org/2000/svg" viewBox="0 0 36 36"><g clip-path="url(#clip0_1466_2172)"><path d="m-.971 29.004 6.348-3.668 6.348 3.668-6.348 3.668-6.348-3.668Z" fill="#49FF87"/><path d="m5.377 3.365 6.349 3.632v22.008l-6.349-3.668V3.364Z" fill="#33B05D"/><path d="M5.377 3.365-.971 6.997v22.008l6.348-3.668V3.364Z" fill="#41E278"/><path d="m18.073-4 .003 7.332-6.351 3.664-.002-7.332L18.073-4Z" fill="#49FF87"/><path d="m37.105 14.318.028-7.314L18.074-4l.002 7.332 19.029 10.986Z" fill="#41E278"/><path d="M37.104 14.319 30.784 18 11.724 6.996l.001-.001 6.35-3.662 19.029 10.986Z" fill="#33B05D"/><path d="m30.785 18-.002 7.332 6.35 3.664.003-7.331L30.785 18Z" fill="#49FF87"/><path d="M11.754 36.319 18.074 40l19.059-11.004-6.35-3.663-19.03 10.986Z" fill="#33B05D"/><path d="m11.755 36.319-.029-7.314L30.785 18l-.003 7.331L11.755 36.32Z" fill="#41E278"/></g><defs><clipPath id="clip0_1466_2172"><path fill="#fff" d="M0 0h36v36H0z"/></clipPath></defs></svg>