<svg fill="none" xmlns="http://www.w3.org/2000/svg" viewBox="0 0 36 36"><rect width="36" height="36" rx="18" fill="#000"/><path d="m5.632 25.19 4.149-2.396 4.148 2.396-4.149 2.397-4.148-2.397Z" fill="#49FF87"/><path d="m9.78 8.437 4.149 2.374v14.38L9.78 22.794V8.437Z" fill="#33B05D"/><path d="m9.78 8.437-4.148 2.374v14.38l4.149-2.397V8.437Z" fill="#41E278"/><path d="m18.076 3.625.002 4.791-4.15 2.394-.001-4.79 4.15-2.395Z" fill="#49FF87"/><path d="m30.512 15.594.018-4.779-12.453-7.19.001 4.79 12.434 7.18Z" fill="#41E278"/><path d="M30.51 15.595 26.382 18l-12.453-7.19 4.15-2.394 12.433 7.178Z" fill="#33B05D"/><path d="m26.382 18-.001 4.791 4.15 2.394v-4.79L26.383 18Z" fill="#49FF87"/><path d="m13.947 29.97 4.13 2.405 12.453-7.19-4.15-2.394-12.433 7.178Z" fill="#33B05D"/><path d="m13.948 29.97-.019-4.78L26.382 18l-.002 4.791-12.432 7.179Z" fill="#41E278"/></svg>