<svg xmlns="http://www.w3.org/2000/svg" fill="none" viewBox="0 0 200 200"><circle cx="100" cy="100" r="100" fill="#fff"/><g clip-path="url(#a)"><path fill="#9580FF" d="M151.811 65.904h-3.878a3.188 3.188 0 0 0-3.012 2.14l-24.188 69.385a3.19 3.19 0 0 0 .411 2.897 3.196 3.196 0 0 0 2.6 1.34h3.877a3.184 3.184 0 0 0 3.009-2.138l24.189-69.385c.168-.48.218-.995.146-1.499a3.178 3.178 0 0 0-1.693-2.385 3.182 3.182 0 0 0-1.461-.355Z"/><path fill="#242925" d="M64.391 87.966v-3.162a3.188 3.188 0 0 0-3.186-3.188h-6.1v-2.93c-.01-3.426.765-5.478 1.462-6.225l.032-.04a3.572 3.572 0 0 1 1.723-.94 41.595 41.595 0 0 1 6.818-.528h1.172a3.189 3.189 0 0 0 3.187-3.188v-2.857a3.182 3.182 0 0 0-2.578-3.13 30.714 30.714 0 0 0-1.299-.224c-.602-.093-3.761-.138-4.383-.14h-.044c-5.135 0-9.507 1.2-12.435 4.341-2.86 3.151-3.896 7.609-3.896 13.025v59.697a3.187 3.187 0 0 0 3.169 3.185h3.884a3.191 3.191 0 0 0 2.946-1.966c.16-.386.243-.801.243-1.219V91.153h6.097a3.185 3.185 0 0 0 3.187-3.187M104.812 83.535a24.068 24.068 0 0 0-12.385-2.944 28.197 28.197 0 0 0-12.357 2.51 19.837 19.837 0 0 0-8.415 7.526l-.015.021a2.75 2.75 0 0 0-.412 1.453 2.91 2.91 0 0 0 1.948 2.734l3.128 1.114a4.461 4.461 0 0 0 4.956-1.401c.296-.362.611-.707.945-1.034 2.047-1.987 5.085-3.158 9.812-3.176 2.034-.048 4.06.267 5.984.932a8.183 8.183 0 0 1 3.531 2.482c1.771 2.174 2.886 5.533 2.99 10.348-4.555.071-8.604.261-12.088.588a56.736 56.736 0 0 0-12.9 2.685h-.014l-.037.009a20.507 20.507 0 0 0-9.903 6.13 16.613 16.613 0 0 0-3.598 10.909v.104a17.61 17.61 0 0 0 2.712 9.765 16.883 16.883 0 0 0 7.573 6.283 27.112 27.112 0 0 0 10.863 2 24.783 24.783 0 0 0 8.376-1.567 26.619 26.619 0 0 0 8.23-4.857c.487-.408.93-.844 1.369-1.299.284 1.86.915 3.651 1.86 5.278a3.172 3.172 0 0 0 2.716 1.518l1.865-.021a3.188 3.188 0 0 0 3.151-3.187V104.29a29.886 29.886 0 0 0-2.315-12.213 18.397 18.397 0 0 0-7.57-8.542Zm-2.595 40.422a18.79 18.79 0 0 1-6.296 6.56 15.463 15.463 0 0 1-8.498 2.413 12.975 12.975 0 0 1-8.523-2.435 7.091 7.091 0 0 1-1.994-2.582 9.19 9.19 0 0 1-.682-3.639 8.27 8.27 0 0 1 1.064-4.187 8.543 8.543 0 0 1 3.912-3.14 35.924 35.924 0 0 1 9.903-2.576 111.11 111.11 0 0 1 13.443-.943v1.972a16.67 16.67 0 0 1-2.325 8.554"/></g><defs><clipPath id="a"><path fill="#fff" d="M44.851 61.414H155v81.17H44.851z"/></clipPath></defs></svg>