<svg width="500" height="500" viewBox="0 0 500 500" fill="none" xmlns="http://www.w3.org/2000/svg">
<g clip-path="url(#clip0_27522_46)">
<path d="M250 500C388.071 500 500 388.071 500 250C500 111.929 388.071 0 250 0C111.929 0 0 111.929 0 250C0 388.071 111.929 500 250 500Z" fill="white"/>
<path d="M250 115C180.96 115 125 170.96 125 240V365H375V240C375 170.96 319.04 115 250 115Z" fill="#1A1A1A"/>
<path d="M296.869 342.19C314.128 342.19 328.119 328.199 328.119 310.94C328.119 293.681 314.128 279.69 296.869 279.69C279.61 279.69 265.619 293.681 265.619 310.94C265.619 328.199 279.61 342.19 296.869 342.19Z" fill="white"/>
<path d="M203.119 342.19C220.378 342.19 234.369 328.199 234.369 310.94C234.369 293.681 220.378 279.69 203.119 279.69C185.86 279.69 171.869 293.681 171.869 310.94C171.869 328.199 185.86 342.19 203.119 342.19Z" fill="white"/>
<path d="M296.876 320.71C302.269 320.71 306.641 316.338 306.641 310.945C306.641 305.552 302.269 301.18 296.876 301.18C291.483 301.18 287.111 305.552 287.111 310.945C287.111 316.338 291.483 320.71 296.876 320.71Z" fill="#05D690"/>
<path d="M203.126 320.71C208.519 320.71 212.891 316.338 212.891 310.945C212.891 305.552 208.519 301.18 203.126 301.18C197.733 301.18 193.361 305.552 193.361 310.945C193.361 316.338 197.733 320.71 203.126 320.71Z" fill="#FF0000"/>
</g>
<defs>
<clipPath id="clip0_27522_46">
<rect width="500" height="500" fill="white"/>
</clipPath>
</defs>
</svg>
