<svg width="20" height="20" viewBox="0 0 20 20" fill="none" xmlns="http://www.w3.org/2000/svg">
<rect width="20" height="20" rx="10" fill="#9896FF"/>
<path d="M8.1408 10.4878C8.5526 10.4209 8.92097 10.1931 9.16485 9.85459C9.40873 9.51609 9.50816 9.09457 9.44125 8.68276C9.37434 8.27095 9.14659 7.90259 8.80808 7.65871C8.46958 7.41482 8.04806 7.3154 7.63625 7.38231C7.22444 7.44921 6.85608 7.67697 6.6122 8.01547C6.36831 8.35398 6.26889 8.7755 6.3358 9.18731C6.4027 9.59911 6.63046 9.96748 6.96896 10.2114C7.30747 10.4552 7.72899 10.5547 8.1408 10.4878ZM12.2522 10.4878C12.664 10.4209 13.0323 10.1931 13.2762 9.85459C13.5201 9.51609 13.6195 9.09457 13.5526 8.68276C13.4857 8.27095 13.258 7.90259 12.9194 7.65871C12.5809 7.41482 12.1594 7.3154 11.7476 7.38231C11.3358 7.44921 10.9674 7.67697 10.7236 8.01547C10.4797 8.35398 10.3803 8.7755 10.4472 9.18731C10.5141 9.59911 10.7418 9.96748 11.0803 10.2114C11.4188 10.4552 11.8404 10.5547 12.2522 10.4878Z" fill="white"/>
<path d="M9.94195 2.44177C5.99877 2.44177 2.74423 5.44995 2.26923 9.33632C2.20286 9.87723 2.6515 10.3218 3.19695 10.3218C3.74241 10.3218 4.1765 9.87632 4.26377 9.33814C4.71741 6.54495 7.07104 4.41677 9.94195 4.41677C12.8133 4.41677 15.1665 6.54541 15.6201 9.33814C15.7079 9.87632 16.1415 10.3218 16.687 10.3218C17.2324 10.3218 17.681 9.87768 17.6147 9.33632C17.1392 5.44995 13.8851 2.44177 9.94195 2.44177Z" fill="white"/>
</svg>
