<svg xmlns="http://www.w3.org/2000/svg" fill="none" viewBox="0 0 200 200"><circle cx="100" cy="100" r="100" fill="#F1EBDF"/><path fill="#143628" d="M39.294 89.047c0-5.464 1.803-10.432 4.92-14.37L77.2 107.57c-4.017 3.109-9.004 4.907-14.412 4.907-13.03-.007-23.562-10.507-23.493-23.43Zm98.121 23.354c12.961.069 23.494-10.439 23.494-23.43A23.286 23.286 0 0 0 155.99 74.6l-32.987 32.894c3.949 3.109 8.936 4.907 14.412 4.907Zm25.502-44.575c4.85 5.806 7.761 13.129 7.761 21.282 0 18.31-14.902 33.168-33.263 33.168-8.103 0-15.519-2.903-21.339-7.741l-16.009 15.963-16.008-15.963c-5.82 4.838-13.168 7.741-21.34 7.741-18.36 0-33.262-14.858-33.262-33.168 0-8.085 2.91-15.483 7.76-21.282l-7.485-7.46L22.6 53.25C14.28 66.927 9.5 82.89 9.5 100.034c0 49.894 40.533 90.256 90.499 90.256 49.957 0 90.498-40.43 90.498-90.256.138-17.205-4.643-33.168-12.961-46.785l-14.619 14.577Zm-62.918 48.858L28.205 45.089a105.47 105.47 0 0 1 6.377-7.392C51.072 20.492 74.29 9.71 100.067 9.71s49.057 10.782 65.485 27.987a61.851 61.851 0 0 1 6.241 7.323l-71.794 71.664Zm-55.58-72.213 55.641 55.495 55.64-55.495c-14.756-14.858-34.438-23.011-55.64-23.011-21.202 0-40.808 8.153-55.64 23.011Z"/></svg>