<svg width="20" height="20" viewBox="0 0 20 20" fill="none" xmlns="http://www.w3.org/2000/svg">
<g clip-path="url(#clip0_4_11127)">
<path d="M20 10C20 4.47715 15.5228 0 10 0C4.47715 0 0 4.47715 0 10C0 15.5228 4.47715 20 10 20C15.5228 20 20 15.5228 20 10Z" fill="#BCEC79"/>
<path fill-rule="evenodd" clip-rule="evenodd" d="M8.43946 14.5992C8.13156 14.5995 7.83155 14.5019 7.58281 14.3204C7.33408 14.1389 7.14951 13.883 7.0558 13.5897L6.2558 11.0752C6.2026 10.9081 6.09758 10.7621 5.95595 10.6586C5.81432 10.555 5.64341 10.4992 5.46796 10.4992C5.16004 10.4995 4.86001 10.4018 4.61127 10.2203C4.36254 10.0388 4.17798 9.78291 4.0843 9.48958L3.78096 8.53625C3.6418 8.09925 3.96796 7.65325 4.42663 7.65325H4.64846C5.09463 7.65325 5.3608 7.15625 5.11346 6.78491C4.86646 6.41375 5.13263 5.91675 5.57863 5.91675H14.4451C14.8911 5.91675 15.1573 6.41375 14.9101 6.78508C14.663 7.15625 14.9291 7.65325 15.3751 7.65325H15.5971C16.0558 7.65325 16.3818 8.09925 16.2428 8.53625L15.9395 9.48958C15.8458 9.78291 15.6612 10.0388 15.4125 10.2203C15.1637 10.4018 14.8637 10.4995 14.5558 10.4992C14.3803 10.4992 14.2094 10.555 14.0678 10.6586C13.9262 10.7621 13.8212 10.9081 13.768 11.0752L12.968 13.5897C12.8743 13.883 12.6897 14.1389 12.4409 14.3204C12.1922 14.5019 11.8922 14.5995 11.5843 14.5992H8.43946ZM7.69646 9.65508C7.69646 10.1212 8.04563 10.4992 8.47646 10.4992C8.90713 10.4992 9.25613 10.1212 9.25613 9.65508C9.25613 9.18891 8.90713 8.81091 8.4763 8.81091C8.04563 8.81091 7.69646 9.18891 7.69646 9.65508ZM12.3271 9.65508C12.3271 10.1212 11.9781 10.4992 11.5475 10.4992C11.1166 10.4992 10.7675 10.1212 10.7675 9.65508C10.7675 9.18891 11.1166 8.81091 11.5475 8.81091C11.9781 8.81091 12.3271 9.18891 12.3271 9.65508Z" fill="#194D05"/>
</g>
<defs>
<clipPath id="clip0_4_11127">
<rect width="20" height="20" fill="white"/>
</clipPath>
</defs>
</svg>
